<?xml version="1.0" encoding="UTF-8" standalone="no"?>
<!-- Created with Inkscape (http://www.inkscape.org/) -->

<svg
   version="1.1"
   id="svg2696"
   width="800"
   height="800"
   viewBox="0 0 800 800"
   sodipodi:docname="rays-burst-publicdomainvectors.org.svg"
   inkscape:version="1.2 (dc2aedaf03, 2022-05-15)"
   xmlns:inkscape="http://www.inkscape.org/namespaces/inkscape"
   xmlns:sodipodi="http://sodipodi.sourceforge.net/DTD/sodipodi-0.dtd"
   xmlns="http://www.w3.org/2000/svg"
   xmlns:svg="http://www.w3.org/2000/svg">
  <defs
     id="defs2700" />
  <sodipodi:namedview
     id="namedview2698"
     pagecolor="#ffffff"
     bordercolor="#000000"
     borderopacity="0.25"
     inkscape:showpageshadow="2"
     inkscape:pageopacity="0.0"
     inkscape:pagecheckerboard="0"
     inkscape:deskcolor="#d1d1d1"
     showgrid="false"
     inkscape:zoom="1.04625"
     inkscape:cx="399.5221"
     inkscape:cy="400.4779"
     inkscape:window-width="1920"
     inkscape:window-height="1017"
     inkscape:window-x="-8"
     inkscape:window-y="-8"
     inkscape:window-maximized="1"
     inkscape:current-layer="g2704">
    <inkscape:page
       x="0"
       y="0"
       id="page2702"
       width="800"
       height="800" />
  </sodipodi:namedview>
  <g
     id="g2704"
     inkscape:groupmode="layer"
     inkscape:label="Page 1"
     transform="matrix(1.3333333,0,0,-1.3333333,0,800)">
    <path
       d="M 0,0 H 600 V 600 H 0 Z"
       style="fill:#5ccaef;fill-opacity:1;fill-rule:nonzero;stroke:none"
       id="path2706" />
    <g
       id="g2708"
       transform="translate(599.9508,204.129)">
      <path
         d="M 0,0 V 57.287 L -306.192,105.65 Z"
         style="fill:#2181c5;fill-opacity:1;fill-rule:nonzero;stroke:none"
         id="path2710" />
    </g>
    <g
       id="g2712"
       transform="translate(599.9508,111.9276)">
      <path
         d="M 0,0 V 69.017 L -305.807,197.706 Z"
         style="fill:#2181c5;fill-opacity:1;fill-rule:nonzero;stroke:none"
         id="path2714" />
    </g>
    <g
       id="g2716"
       transform="translate(585.7029,0.0486)">
      <path
         d="m 0,0 h 14.248 v 81.926 l -305.47,227.426 z"
         style="fill:#2181c5;fill-opacity:1;fill-rule:nonzero;stroke:none"
         id="path2718" />
    </g>
    <g
       id="g2720"
       transform="translate(469.0665,0.0486)">
      <path
         d="M 0,0 H 80.314 L -174.313,309.045 Z"
         style="fill:#2181c5;fill-opacity:1;fill-rule:nonzero;stroke:none"
         id="path2722" />
    </g>
    <g
       id="g2724"
       transform="translate(381.0042,0.0486)">
      <path
         d="M 0,0 H 62.097 L -86.061,308.68 Z"
         style="fill:#2181c5;fill-opacity:1;fill-rule:nonzero;stroke:none"
         id="path2726" />
    </g>
    <g
       id="g2728"
       transform="translate(304.3674,0.0486)">
      <path
         d="M 0,0 H 55.04 L -9.325,308.282 Z"
         style="fill:#2181c5;fill-opacity:1;fill-rule:nonzero;stroke:none"
         id="path2730" />
    </g>
    <g
       id="g2732"
       transform="translate(228.9636,0.0486)">
      <path
         d="M 0,0 H 55.044 L 66.079,307.872 Z"
         style="fill:#2181c5;fill-opacity:1;fill-rule:nonzero;stroke:none"
         id="path2734" />
    </g>
    <g
       id="g2736"
       transform="translate(145.2465,0.0486)">
      <path
         d="m 0,0 h 62.118 l 87.579,307.473 z"
         style="fill:#2181c5;fill-opacity:1;fill-rule:nonzero;stroke:none"
         id="path2738" />
    </g>
    <g
       id="g2740"
       transform="translate(38.826,0.0486)">
      <path
         d="M 0,0 H 80.436 L 255.928,307.109 Z"
         style="fill:#2181c5;fill-opacity:1;fill-rule:nonzero;stroke:none"
         id="path2742" />
    </g>
    <g
       id="g2744"
       transform="translate(0,90.1534)">
      <path
         d="M 0,0 V -90.105 H 2.408 L 294.481,216.698 Z"
         style="fill:#2181c5;fill-opacity:1;fill-rule:nonzero;stroke:none"
         id="path2746" />
    </g>
    <g
       id="g2748"
       transform="translate(0,184.7689)">
      <path
         d="M 0,0 V -65.993 L 294.143,121.848 Z"
         style="fill:#2181c5;fill-opacity:1;fill-rule:nonzero;stroke:none"
         id="path2750" />
    </g>
    <g
       id="g2752"
       transform="translate(0,261.7536)">
      <path
         d="M 0,0 V -54.807 L 293.759,44.719 Z"
         style="fill:#2181c5;fill-opacity:1;fill-rule:nonzero;stroke:none"
         id="path2754" />
    </g>
    <g
       id="g2756"
       transform="translate(0,281.4261)">
      <path
         d="M 0,0 293.352,24.997 0,51.645 Z"
         style="fill:#2181c5;fill-opacity:1;fill-rule:nonzero;stroke:none"
         id="path2758" />
    </g>
    <g
       id="g2760"
       transform="translate(0,352.7436)">
      <path
         d="M 0,0 292.945,-46.271 0,54.808 Z"
         style="fill:#2181c5;fill-opacity:1;fill-rule:nonzero;stroke:none"
         id="path2762" />
    </g>
    <g
       id="g2764"
       transform="translate(0,429.731)">
      <path
         d="M 0,0 292.561,-123.114 0,66.029 Z"
         style="fill:#2181c5;fill-opacity:1;fill-rule:nonzero;stroke:none"
         id="path2766" />
    </g>
    <g
       id="g2768"
       transform="translate(0,600.0003)">
      <path
         d="M 0,0 V -75.586 L 292.223,-293.149 16.253,0 Z"
         style="fill:#2181c5;fill-opacity:1;fill-rule:nonzero;stroke:none"
         id="path2770" />
    </g>
    <g
       id="g2772"
       transform="translate(50.6722,600.0003)">
      <path
         d="M 0,0 241.279,-292.843 76.103,0 Z"
         style="fill:#2181c5;fill-opacity:1;fill-rule:nonzero;stroke:none"
         id="path2774" />
    </g>
    <g
       id="g2776"
       transform="translate(151.379,600.0003)">
      <path
         d="M 0,0 140.381,-292.478 58.837,0 Z"
         style="fill:#2181c5;fill-opacity:1;fill-rule:nonzero;stroke:none"
         id="path2778" />
    </g>
    <g
       id="g2780"
       transform="translate(230.6774,600.0003)">
      <path
         d="M 0,0 60.984,-292.08 52.15,0 Z"
         style="fill:#2181c5;fill-opacity:1;fill-rule:nonzero;stroke:none"
         id="path2782" />
    </g>
    <g
       id="g2784"
       transform="translate(302.1157,600.0003)">
      <path
         d="M 0,0 -10.454,-291.669 52.147,0 Z"
         style="fill:#2181c5;fill-opacity:1;fill-rule:nonzero;stroke:none"
         id="path2786" />
    </g>
    <g
       id="g2788"
       transform="translate(374.7245,600.0003)">
      <path
         d="M 0,0 -82.964,-291.272 58.846,0 Z"
         style="fill:#2181c5;fill-opacity:1;fill-rule:nonzero;stroke:none"
         id="path2790" />
    </g>
    <g
       id="g2792"
       transform="translate(458.1847,600.0003)">
      <path
         d="M 0,0 -166.234,-290.907 76.193,0 Z"
         style="fill:#2181c5;fill-opacity:1;fill-rule:nonzero;stroke:none"
         id="path2794" />
    </g>
    <g
       id="g2796"
       transform="translate(568.8734,600.0003)">
      <path
         d="M 0,0 -276.651,-290.6 31.077,-64.156 V 0 Z"
         style="fill:#2181c5;fill-opacity:1;fill-rule:nonzero;stroke:none"
         id="path2798" />
    </g>
    <g
       id="g2800"
       transform="translate(292.5612,309.6333)">
      <path
         d="m 0,0 307.39,127.336 v 68.966 z"
         style="fill:#2181c5;fill-opacity:1;fill-rule:nonzero;stroke:none"
         id="path2802" />
    </g>
    <g
       id="g2804"
       transform="translate(292.9446,309.7791)">
      <path
         d="m 0,0 307.006,46.734 v 57.28 z"
         style="fill:#2181c5;fill-opacity:1;fill-rule:nonzero;stroke:none"
         id="path2806" />
    </g>
    <g
       id="g2808"
       transform="translate(293.3523,309.8277)">
      <path
         d="M 0,0 306.599,-27.851 V 26.125 Z"
         style="fill:#2181c5;fill-opacity:1;fill-rule:nonzero;stroke:none"
         id="path2810" />
    </g>
  </g>
</svg>
