<?xml version="1.0" standalone="no"?>
<!DOCTYPE svg PUBLIC "-//W3C//DTD SVG 20010904//EN"
 "http://www.w3.org/TR/2001/REC-SVG-20010904/DTD/svg10.dtd">
<svg version="1.0" xmlns="http://www.w3.org/2000/svg"
 width="1300.000000pt" height="474.000000pt" viewBox="0 0 1300.000000 474.000000"
 preserveAspectRatio="xMidYMid meet">
<metadata>
Created by potrace 1.16, written by Peter Selinger 2001-2019
</metadata>
<g transform="translate(0.000000,474.000000) scale(0.100000,-0.100000)"
fill="#000000" stroke="none">
<path d="M20 4540 l0 -200 43 0 c23 -1 151 -1 285 -2 133 0 244 -4 247 -8 9
-14 -17 -24 -51 -21 -24 2 -33 -2 -37 -16 -4 -14 -5 -12 -6 6 -1 15 -6 21 -15
18 -7 -3 -19 0 -25 6 -8 8 -11 8 -11 -1 0 -7 -5 -12 -11 -12 -5 0 -7 5 -4 10
8 13 4 13 -37 -4 -25 -11 -45 -12 -73 -6 -28 6 -41 5 -52 -5 -11 -12 -8 -14
19 -18 l33 -4 -37 -1 c-21 -1 -38 3 -41 11 -4 9 -8 8 -16 -3 -8 -12 -32 -15
-108 -15 l-98 0 -3 -957 c-1 -527 1 -958 5 -958 5 0 7 248 5 551 -2 334 0 549
6 545 5 -3 9 8 10 24 0 17 -4 30 -9 30 -5 0 -7 28 -4 68 3 37 5 129 5 205 0
80 4 137 9 137 6 0 10 -65 10 -157 1 -87 3 -168 6 -180 2 -13 5 -302 7 -642 2
-366 7 -613 12 -604 5 9 10 64 13 122 2 58 6 126 10 151 3 25 6 293 5 595 0
453 -3 575 -17 690 -9 77 -21 148 -26 157 -5 9 -9 18 -9 20 0 8 56 2 62 -6 4
-6 13 -5 22 3 16 14 60 6 51 -9 -3 -5 -13 -49 -21 -97 -11 -71 -14 -202 -14
-670 0 -360 4 -593 10 -609 6 -14 10 -47 9 -73 -2 -58 10 -213 21 -266 7 -37
8 -35 9 25 1 36 5 72 11 80 6 9 5 17 -3 22 -11 7 -15 667 -7 1273 l2 180 8
-120 c5 -66 8 -222 8 -347 0 -142 5 -234 11 -247 7 -13 8 -28 2 -44 -9 -22 -8
-171 1 -489 1 -54 6 -98 10 -98 4 0 8 -12 7 -27 l-1 -28 -7 25 c-7 21 -8 18
-12 -20 -7 -75 5 -257 15 -240 11 16 29 218 27 293 -1 26 2 47 7 47 5 0 8 24
6 53 -2 51 -13 528 -19 842 -2 98 1 165 7 173 7 8 7 12 1 12 -6 0 -11 35 -11
83 0 45 -1 109 -2 143 -3 71 2 84 36 84 21 0 24 5 25 38 1 29 3 24 10 -23 5
-33 6 -82 2 -110 -3 -27 -6 -272 -5 -542 1 -384 -1 -493 -11 -493 -8 0 -9 -2
-1 -8 10 -6 25 -158 27 -274 1 -20 5 -34 9 -32 4 3 8 -30 9 -73 1 -43 4 -105
8 -138 3 -33 6 208 5 535 0 432 1 514 5 300 4 -162 8 -284 9 -270 2 14 2 113
2 220 0 107 2 191 6 187 11 -11 19 -345 18 -716 -1 -404 18 -404 40 -1 12 207
2 1131 -13 1265 -7 61 -11 128 -9 150 3 37 5 40 36 41 26 1 32 -2 32 -20 0
-17 2 -19 11 -6 8 11 9 3 5 -30 -20 -165 -29 -582 -14 -627 4 -12 3 -25 -2
-28 -5 -3 -7 -11 -5 -18 12 -33 13 -67 2 -67 -8 0 -8 -3 -2 -8 16 -11 13 -98
-2 -95 -17 4 -17 -14 -1 -19 14 -5 20 -155 7 -164 -5 -3 -7 -9 -4 -13 10 -17
15 -112 5 -106 -6 3 -10 -1 -10 -10 0 -9 5 -13 10 -10 16 10 12 -33 -7 -68
-15 -30 -15 -31 1 -17 17 13 18 12 15 -15 -2 -17 -8 -33 -13 -37 -6 -4 -4 -13
3 -22 8 -10 17 -60 21 -125 4 -59 10 -114 14 -120 4 -7 2 -18 -4 -26 -8 -10
-9 -15 -2 -15 6 0 9 -6 7 -12 -2 -7 0 -29 4 -48 l9 -35 1 45 c1 25 1 313 1
642 -1 478 2 597 12 601 9 4 9 6 1 6 -8 1 -11 41 -11 139 -1 75 2 131 5 124 2
-6 8 -10 13 -7 9 5 24 -1046 18 -1323 -1 -100 0 -182 4 -182 8 0 25 102 27
163 1 16 5 26 11 22 7 -4 7 3 0 20 -6 15 -7 32 -3 38 4 7 8 30 8 52 0 22 4 46
8 52 4 7 3 22 -3 33 -6 11 -7 20 -2 20 13 0 12 94 -1 103 -9 7 -9 10 1 14 18
7 15 24 -3 17 -11 -5 -13 -2 -9 9 3 9 12 13 20 10 12 -4 14 0 8 23 -8 37 -8
36 0 56 4 9 3 25 -3 37 -13 24 -15 104 -2 97 5 -3 12 1 15 10 9 24 8 26 -13
19 -17 -5 -18 2 -19 132 0 76 -1 140 -2 143 -1 3 -3 73 -6 155 -2 83 -6 167
-8 188 -3 20 -1 37 5 37 6 0 6 6 0 18 -7 14 -9 89 -2 125 3 15 19 6 26 -15 4
-14 8 -18 12 -10 8 20 30 14 37 -10 3 -13 3 -142 -1 -288 -8 -380 -9 -579 -2
-574 3 2 5 -7 3 -19 -7 -41 -10 -217 -4 -217 7 0 3 -80 -4 -88 -3 -3 0 -12 7
-20 6 -9 7 -13 1 -9 -6 3 -11 0 -11 -8 0 -8 4 -12 8 -10 4 3 9 -13 11 -34 2
-23 -1 -37 -6 -34 -5 4 -6 -14 -2 -43 4 -27 11 -98 17 -158 5 -61 12 -112 14
-115 5 -5 7 68 5 192 -1 57 2 77 12 77 10 0 10 2 -1 9 -12 8 -14 91 -15 513 0
642 2 798 14 798 6 0 10 -24 10 -52 0 -29 4 -161 8 -293 4 -132 7 -466 7 -742
0 -277 1 -503 2 -503 12 0 25 56 29 123 3 45 10 84 15 85 6 3 6 8 0 16 -6 7
-7 26 -1 49 4 20 5 37 1 37 -3 0 1 5 9 10 11 7 12 12 4 18 -17 10 -19 266 -2
256 7 -4 8 -3 4 4 -14 23 -17 114 -16 567 0 229 -4 329 -17 424 -16 116 -16
124 0 136 21 15 22 25 2 25 -8 0 -15 5 -15 10 0 6 0 13 0 17 0 10 83 3 95 -8
6 -7 5 -13 -4 -18 -10 -6 -10 -10 -1 -13 9 -3 9 -24 0 -98 -7 -56 -11 -220
-11 -399 1 -221 -2 -308 -11 -318 -7 -9 -8 -17 -2 -21 10 -8 11 -25 15 -273 1
-96 -1 -181 -6 -188 -4 -8 -2 -16 4 -21 7 -4 11 -24 10 -46 -1 -21 3 -77 9
-124 6 -47 11 -98 10 -115 0 -16 4 -50 10 -75 10 -44 10 -45 11 -10 l1 35 18
-26 17 -26 20 20 c11 11 14 17 7 12 -11 -6 -13 6 -7 68 4 42 9 100 10 129 2
29 6 106 10 171 4 65 8 144 9 175 1 40 5 56 16 59 13 4 13 3 0 -7 -12 -9 -10
-11 11 -6 26 6 26 4 28 -47 1 -28 3 -72 5 -97 2 -25 7 -85 11 -135 5 -49 9
-99 10 -110 1 -11 5 -65 9 -120 l8 -100 -30 -28 c-21 -20 -28 -35 -24 -49 4
-19 6 -18 18 8 11 27 12 27 13 6 1 -13 5 -21 9 -18 5 3 7 18 4 34 -2 16 1 33
7 36 7 4 11 40 11 89 0 65 3 79 13 69 7 -8 13 -43 14 -85 3 -100 4 -105 13
-77 4 14 9 63 9 110 1 47 7 130 15 185 7 55 11 117 8 137 -3 26 1 42 13 54 12
13 13 19 4 24 -7 5 -10 19 -6 39 4 18 2 31 -3 31 -6 0 -10 100 -11 263 -1 450
-6 639 -18 737 -7 52 -11 113 -9 135 3 36 5 40 28 37 14 -1 35 -3 46 -2 20 0
21 -5 19 -78 -2 -42 -6 -158 -9 -257 -4 -99 -8 -185 -10 -192 -3 -6 -2 -14 1
-17 12 -11 11 -191 0 -198 -8 -5 -8 -8 -1 -8 7 0 11 -110 13 -352 1 -194 6
-384 12 -423 5 -38 12 -105 15 -148 12 -163 17 -54 15 334 -1 233 2 399 7 395
5 -3 9 1 9 9 0 8 -4 12 -9 9 -11 -7 -15 782 -3 794 3 3 5 -37 6 -89 1 -52 3
-114 6 -139 3 -25 8 -350 12 -722 3 -372 9 -680 14 -684 4 -4 7 4 8 17 0 13 2
31 3 39 3 14 18 255 20 330 1 19 5 41 10 48 4 7 3 19 -3 26 -12 14 -10 63 3
84 4 7 4 17 1 22 -3 6 -1 10 4 10 6 0 11 11 11 24 0 27 16 44 22 24 3 -7 5 1
5 19 0 27 -3 31 -23 27 -21 -4 -22 0 -26 62 -1 36 0 71 4 79 4 7 3 27 -3 44
-9 24 -7 37 5 63 9 17 12 34 7 37 -14 10 -23 68 -11 76 5 3 8 11 5 16 -4 5 -8
121 -11 257 -3 136 -9 272 -13 302 -5 31 -5 65 0 78 5 13 9 39 9 58 0 35 0 35
43 32 42 -3 42 -3 39 -38 -2 -19 -10 -40 -18 -47 -9 -6 -11 -14 -5 -17 12 -8
2 -209 -11 -217 -7 -4 -7 -8 0 -10 7 -3 13 -162 18 -482 6 -453 5 -479 -12
-498 -13 -15 -14 -18 -3 -14 12 5 16 -4 18 -44 1 -27 4 -60 7 -73 3 -13 7 -52
10 -88 3 -36 7 -87 9 -115 2 -27 4 -65 5 -82 0 -18 4 -33 10 -33 6 0 8 44 5
120 -2 66 -1 120 2 120 23 0 32 -43 33 -150 0 -78 3 -110 10 -100 5 8 10 52
10 97 0 45 4 84 9 87 10 6 9 31 -1 41 -3 3 0 32 7 65 7 33 10 58 6 56 -3 -2
-6 22 -6 55 0 33 4 59 10 59 10 0 13 48 4 66 -7 13 -3 96 6 117 4 10 3 17 -3
17 -6 0 -11 40 -11 101 -1 56 -4 105 -7 110 -3 5 0 9 6 9 6 0 9 4 6 8 -8 13
-17 458 -10 477 6 14 9 14 29 -5 24 -23 29 -68 27 -265 -4 -373 16 -941 38
-1049 7 -37 8 -33 9 34 1 41 0 273 -1 515 -2 242 -3 563 -3 713 0 149 -3 272
-7 272 -4 0 -6 26 -3 58 2 31 4 64 4 72 1 10 4 11 12 3 13 -13 16 -84 23 -558
9 -561 16 -1045 16 -1106 0 -140 21 26 34 271 13 233 3 1125 -14 1250 -6 47
-12 111 -14 143 l-2 59 36 -6 c19 -3 44 -7 55 -9 11 -1 19 -7 18 -12 0 -6 -4
-52 -7 -104 -4 -52 -9 -98 -12 -103 -6 -9 -7 -94 -5 -268 1 -63 1 -119 0 -125
-1 -5 0 -14 1 -20 1 -5 4 -183 6 -395 2 -212 8 -421 14 -465 5 -44 12 -119 16
-167 10 -136 26 -108 20 35 -3 67 -8 385 -12 706 -3 321 -8 595 -10 609 -3 13
0 30 7 38 9 11 8 14 -2 14 -11 0 -11 2 1 10 10 6 11 10 3 10 -19 0 -17 189 1
213 14 18 14 18 19 0 3 -10 8 -196 12 -413 4 -217 8 -485 11 -595 2 -110 4
-324 4 -475 0 -156 4 -268 9 -260 5 8 14 116 21 240 11 202 12 302 7 522 -2
53 1 68 13 72 13 3 13 4 0 5 -14 1 -16 39 -17 295 -1 162 -7 341 -14 398 -7
57 -13 130 -13 163 -1 33 -5 65 -9 72 -5 8 11 11 63 10 48 -1 70 -6 70 -14 0
-7 -4 -13 -8 -13 -5 0 -14 -75 -20 -167 -19 -297 8 -1538 34 -1562 8 -8 -4
1514 -12 1627 -5 61 -4 82 5 82 7 0 10 4 6 9 -3 5 -1 12 5 16 15 10 18 -26 25
-300 4 -143 8 -276 10 -295 2 -19 3 -287 4 -595 1 -398 5 -555 12 -542 6 10 8
25 5 33 -3 8 -2 14 2 14 4 0 7 55 7 123 1 67 4 147 8 177 14 110 16 161 7 155
-6 -4 -10 7 -10 25 0 18 4 29 10 25 13 -8 13 1 -1 27 -8 15 -8 19 0 14 6 -4
11 0 11 9 0 9 -4 13 -10 10 -5 -3 -10 3 -10 15 0 12 3 19 8 17 4 -3 6 20 5 51
-2 32 -4 132 -5 224 -2 93 -6 168 -10 168 -4 0 -5 10 -2 23 9 37 12 97 5 97
-12 0 -9 284 3 292 8 5 7 8 -1 8 -9 0 -13 17 -13 51 l0 52 30 -6 c22 -5 30 -3
30 8 0 8 -9 15 -20 15 -20 0 -28 24 -11 34 5 4 12 24 16 46 9 56 21 50 24 -12
1 -28 5 -57 9 -62 10 -15 9 -296 -1 -296 -4 0 -4 -8 0 -17 4 -10 8 -73 8 -141
0 -93 -3 -125 -14 -131 -8 -5 -9 -10 -3 -12 7 -3 11 -54 12 -134 3 -223 2
-225 -17 -218 -15 5 -15 3 1 -9 17 -13 20 -29 20 -124 1 -60 -2 -117 -7 -126
-4 -10 -4 -18 1 -18 5 0 12 -57 16 -127 11 -192 22 -297 26 -248 4 50 4 42 -4
698 l-8 547 21 0 c20 0 21 -5 22 -102 0 -57 2 -119 4 -138 2 -19 5 -263 7
-541 2 -279 6 -505 10 -503 16 10 33 278 33 542 l0 232 23 0 c14 0 21 4 17 11
-4 6 -13 8 -21 5 -16 -6 -16 -9 -14 109 5 231 -8 536 -25 629 -8 44 -17 108
-19 142 -2 33 -9 71 -15 82 -11 20 -9 22 13 22 14 0 36 -4 50 -10 14 -5 26 -6
26 -2 0 4 21 7 48 5 26 -1 53 -2 60 -2 6 -1 12 -13 12 -28 0 -26 0 -26 -21 -7
l-22 19 6 -40 c9 -56 20 -784 21 -1297 1 -235 4 -424 8 -420 6 6 22 170 21
217 -1 11 4 47 9 80 5 33 10 116 9 184 0 68 2 128 5 133 3 5 13 3 22 -4 16
-12 16 -11 2 6 -13 17 -13 19 0 14 12 -4 17 -42 27 -189 7 -101 10 -195 7
-207 -3 -17 -1 -22 8 -16 10 5 11 4 1 -7 -15 -15 -17 -33 -3 -24 5 3 11 -28
13 -77 3 -79 3 -77 5 27 2 94 5 107 16 93 7 -10 17 -18 22 -18 5 0 9 -35 8
-77 -1 -96 13 -157 16 -73 5 96 7 124 14 174 10 65 20 259 16 316 -8 111 0
162 23 166 18 2 21 -33 17 -241 0 -49 6 -142 14 -205 8 -63 15 -146 15 -184 1
-38 4 -72 7 -75 4 -3 4 271 0 609 -4 425 -3 610 5 600 9 -14 6 266 -6 405 -2
28 -4 59 -4 69 -1 11 -3 17 -6 14 -6 -6 -10 -38 -21 -170 -4 -49 -11 -88 -17
-88 -6 0 -6 -5 1 -12 6 -8 11 -117 11 -290 1 -251 0 -278 -15 -278 -11 0 -14
-5 -10 -16 3 -9 6 -22 6 -30 0 -9 4 -12 10 -9 6 4 10 -10 9 -37 -1 -24 -3 -35
-6 -25 -2 9 -8 17 -13 17 -5 0 -14 -8 -19 -17 -9 -16 -10 -15 -11 8 0 14 5 30
12 37 9 9 9 12 0 12 -8 0 -12 19 -12 55 0 37 4 55 13 55 8 0 7 3 -3 10 -11 7
-12 17 -5 47 6 21 8 58 4 83 -3 25 -7 128 -7 230 -2 177 -21 375 -43 430 -11
30 -42 52 -63 44 -20 -8 -25 -35 -25 -143 0 -51 -3 -96 -6 -99 -3 -3 -5 12 -5
34 -1 36 -2 38 -15 20 -8 -11 -15 -30 -15 -43 0 -13 -4 -23 -10 -23 -5 0 -10
18 -10 39 0 22 -3 47 -7 57 -5 13 -3 15 8 9 12 -8 12 -6 1 8 -8 9 -12 24 -9
34 4 14 5 13 6 -5 0 -13 6 -20 11 -17 6 3 10 -1 10 -9 0 -9 5 -16 11 -16 13 0
3 48 -15 70 -7 8 -13 31 -14 50 -1 31 0 32 7 10 l9 -25 1 28 c1 20 6 27 20 27
11 0 22 4 25 9 3 5 25 5 48 0 24 -4 83 -8 132 -9 l88 0 -6 -27 c-4 -16 -7 -32
-6 -38 0 -5 3 -394 6 -863 4 -469 10 -850 14 -845 11 11 27 273 17 273 -4 0
-1 15 6 33 8 21 12 79 12 170 -1 76 2 140 7 143 4 3 5 17 3 32 -3 15 -7 57 -9
94 -4 64 -3 67 15 57 11 -5 23 -8 28 -5 5 3 8 -28 8 -69 -1 -41 -5 -75 -9 -75
-4 0 -3 -11 2 -25 5 -14 9 -85 8 -158 -1 -73 1 -137 4 -142 3 -6 6 -37 7 -70
1 -33 8 -100 16 -150 l14 -90 -4 85 c-8 156 -18 1574 -11 1621 l7 46 87 1 c48
1 94 -2 102 -8 8 -5 11 -10 5 -10 -5 0 -5 -4 2 -8 9 -6 14 -148 18 -577 3
-314 8 -699 11 -856 3 -158 2 -289 -3 -291 -4 -3 -2 -3 5 -2 6 2 12 -2 12 -9
0 -9 2 -9 8 1 5 7 8 52 6 100 -2 73 1 88 15 94 14 6 14 7 -2 7 -13 1 -17 7
-13 19 6 23 19 187 18 240 -1 43 5 51 26 30 9 -9 12 -9 12 0 0 7 -5 12 -11 12
-6 0 -9 7 -5 15 3 8 0 14 -7 12 -6 -1 -13 9 -15 23 -3 20 -1 23 9 13 20 -20
31 -15 17 6 -7 11 -15 18 -19 15 -4 -2 -9 14 -11 35 -2 22 1 37 5 34 5 -3 7 3
4 13 -9 28 -12 123 -5 130 4 3 4 12 1 20 -4 11 0 12 18 5 13 -4 26 -16 27 -26
3 -11 0 -15 -7 -10 -12 7 -12 -28 0 -50 3 -5 6 -38 8 -72 2 -47 -1 -63 -11
-63 -10 0 -10 -2 -1 -8 7 -4 12 -23 11 -42 -1 -56 12 -260 18 -285 3 -13 1
-26 -5 -29 -6 -4 -11 -17 -11 -30 0 -13 -9 -31 -20 -41 -26 -24 -26 -49 0 -42
23 6 24 0 10 -39 -6 -15 -7 -31 -3 -35 5 -5 10 3 11 18 1 15 6 31 11 36 6 6 5
21 -1 39 -7 20 -7 33 0 40 11 11 26 -74 22 -123 -1 -13 -1 -37 1 -54 1 -16 5
11 8 60 3 50 3 122 -1 160 -3 39 -7 347 -8 685 0 338 -2 624 -5 635 -2 11 -4
43 -5 70 l-3 50 -8 -45 c-4 -25 -8 -81 -9 -125 -1 -55 -4 -74 -10 -60 -6 15
-9 16 -11 5 -3 -25 -5 -34 -14 -63 -5 -21 -3 -33 11 -48 17 -19 19 -43 22
-255 2 -157 -1 -234 -8 -234 -5 0 -10 7 -10 15 0 8 -9 15 -21 15 -15 0 -19 5
-15 18 3 9 6 31 6 47 0 38 -1 272 -1 305 -1 14 -2 76 -3 137 -1 62 -5 116 -9
119 -4 4 -7 23 -7 42 0 20 -7 73 -16 120 -9 46 -12 88 -7 92 19 19 73 15 73
-6 0 -8 5 -12 10 -9 6 4 8 11 5 16 -4 5 -1 9 4 9 6 0 11 -4 11 -10 0 -5 19 -3
45 4 33 10 45 11 45 3 0 -7 5 -5 10 3 7 11 10 6 11 -20 2 -64 10 -144 15 -150
3 -3 4 34 3 82 -2 48 0 90 4 94 4 4 8 -8 8 -27 l1 -34 8 30 c4 17 9 23 10 15
1 -8 4 -33 7 -55 2 -22 5 -330 7 -685 1 -355 5 -692 9 -750 10 -144 18 -224
23 -229 2 -2 2 77 1 175 -1 99 -1 195 1 214 1 19 0 89 -2 155 -3 66 -7 290
-10 497 -5 330 -4 376 9 372 11 -5 15 1 15 22 0 22 -3 25 -10 14 -8 -12 -10
-12 -15 3 -8 19 1 216 11 241 10 27 36 -9 39 -57 3 -35 6 -1521 3 -1567 0 -8
3 -31 7 -51 4 -23 3 -39 -4 -43 -6 -4 -11 -17 -11 -29 0 -16 3 -18 11 -10 7 7
16 72 21 145 5 73 12 153 14 178 2 25 4 136 5 248 0 135 4 202 11 202 7 0 7 4
0 13 -7 8 -11 139 -11 377 -1 201 -3 376 -5 390 -3 14 -7 48 -10 75 -3 28 -9
73 -14 102 -12 73 -5 79 86 68 44 -5 51 -9 42 -20 -7 -8 -10 -22 -7 -32 4 -14
5 -13 6 5 1 23 17 31 19 10 7 -66 12 -346 18 -958 4 -399 10 -734 15 -745 6
-14 8 -6 10 30 1 28 3 84 4 125 2 41 6 116 10 165 4 50 7 123 6 163 -1 48 2
79 11 90 11 13 11 14 -1 8 -10 -7 -12 2 -10 43 2 28 0 51 -6 51 -5 0 -5 4 1
10 7 7 9 47 6 102 -3 65 0 93 8 98 8 5 9 13 4 21 -4 7 -9 134 -10 280 -1 147
-5 277 -9 287 -3 11 -1 23 5 27 7 5 8 11 1 19 -14 17 -24 100 -16 135 7 32 35
33 35 1 0 -12 7 -17 25 -15 14 2 25 -1 25 -6 0 -5 5 -9 10 -9 18 0 10 22 -10
27 -20 5 -25 15 -14 26 12 11 55 -16 49 -31 -4 -12 -3 -13 10 -2 12 10 16 9
21 -4 3 -9 3 -24 -1 -33 -12 -29 -17 -266 -6 -259 12 8 13 -186 1 -254 -5 -33
-8 -6 -10 100 -2 80 -5 134 -7 120 -3 -14 -8 -29 -13 -35 -9 -12 -21 -90 -25
-163 -2 -29 -9 -59 -15 -67 -7 -8 -9 -15 -4 -15 5 0 7 -27 6 -59 -3 -50 -6
-59 -20 -55 -16 5 -16 5 -1 -8 9 -7 18 -31 21 -53 5 -37 -6 -222 -16 -270 -2
-11 1 -26 7 -33 6 -8 7 -52 3 -120 -5 -79 -4 -103 4 -92 9 12 10 11 6 -5 -6
-22 13 -93 38 -140 25 -47 19 -54 -9 -10 l-25 40 5 -65 c2 -36 4 -75 5 -87 0
-14 6 -23 15 -23 17 0 20 16 5 25 -5 3 -10 21 -9 38 0 27 3 22 19 -28 11 -33
20 -73 21 -90 2 -28 2 -28 7 -5 4 23 5 24 13 5 4 -12 8 26 9 95 2 147 10 207
28 203 6 -2 9 4 6 12 -4 8 -11 15 -17 15 -6 0 -7 3 -4 6 4 4 13 1 21 -5 12
-10 14 -9 9 8 -3 12 -10 21 -15 21 -5 0 -6 5 -3 10 3 6 1 10 -6 10 -6 0 -1 9
12 20 20 16 21 19 7 20 -14 0 -18 8 -18 33 0 17 -3 71 -6 120 -4 54 -2 87 4
87 5 0 12 11 14 25 3 14 1 23 -6 22 -7 -1 -12 27 -14 81 -2 55 1 82 8 82 6 0
10 10 8 23 -2 12 -9 21 -16 19 -9 -2 -12 4 -8 15 3 10 6 43 7 73 1 30 6 63 11
74 7 13 7 16 -1 12 -8 -5 -11 13 -11 56 -1 35 -2 163 -4 286 -3 152 -1 220 6
216 6 -4 8 -1 6 7 -3 8 -10 13 -16 12 -5 -1 -12 12 -16 29 -6 30 -7 30 -26 13
-31 -28 -65 -3 -42 31 11 17 101 12 112 -6 7 -11 10 -11 10 -2 0 7 4 10 10 7
6 -3 10 -1 10 6 0 6 8 1 18 -10 9 -12 26 -23 36 -25 11 -1 21 -11 23 -22 7
-43 18 -633 18 -984 -1 -380 -4 -472 -17 -463 -8 4 -10 -11 -11 -64 -1 -25
-17 -33 -17 -9 0 8 -4 16 -10 18 -6 2 -10 247 -12 648 -2 355 -5 697 -8 760
l-5 115 -8 -169 c-4 -92 -7 -279 -7 -415 2 -250 2 -286 0 -587 0 -95 6 -232
15 -305 8 -74 16 -154 18 -179 3 -41 4 -40 5 13 1 32 7 57 12 57 6 0 19 19 29
43 l19 42 0 -93 c0 -51 3 -96 6 -99 3 -4 6 17 6 45 0 29 5 52 11 54 9 3 9 10
-1 27 -10 20 -10 25 4 33 13 7 14 13 6 23 -14 17 -8 64 11 77 11 8 11 9 -3 4
-13 -4 -17 0 -15 14 2 11 6 23 10 26 11 11 8 26 -3 19 -11 -7 -13 6 -4 29 3 9
10 13 15 10 5 -3 9 -1 9 5 0 5 -5 13 -10 16 -16 10 -8 94 8 88 8 -4 10 0 6 11
-3 8 -11 14 -17 13 -6 -1 -13 8 -15 21 -2 15 2 22 13 22 13 0 15 4 9 18 -5 9
-9 87 -9 172 0 153 0 155 23 158 25 4 23 33 22 -311 -1 -220 17 -467 33 -467
5 0 6 10 2 23 -12 35 -16 1497 -5 1497 6 0 5 9 -2 20 -10 16 -10 24 0 40 10
17 10 20 -3 20 -8 0 -15 7 -15 15 0 12 14 14 93 8 50 -3 95 -10 98 -16 4 -6 9
-5 13 1 9 15 279 13 288 -2 6 -8 8 -8 8 0 0 7 34 11 100 12 86 0 101 -2 110
-17 5 -10 5 -22 0 -27 -8 -9 -16 -116 -26 -344 -10 -225 -1 -982 11 -1021 4
-12 13 -85 20 -162 8 -78 12 -106 10 -62 -3 44 -8 329 -11 634 -6 465 -5 555
7 563 11 7 11 11 2 15 -16 6 -19 368 -3 378 6 3 10 16 10 28 1 19 2 20 11 5 5
-9 16 -15 24 -12 8 4 12 10 9 15 -3 5 22 9 56 9 39 0 59 -4 55 -10 -8 -13 3
-50 15 -50 5 0 11 10 13 23 4 19 4 18 6 -5 0 -16 7 -28 14 -28 16 0 16 -1 20
-180 2 -84 0 -150 -6 -157 -6 -9 -5 -13 4 -13 11 0 11 -2 -1 -10 -9 -6 -10
-10 -3 -10 10 0 15 -367 17 -1228 0 -36 3 -49 10 -42 11 11 12 145 1 187 -5
21 -3 24 15 18 24 -8 26 1 5 21 -13 14 -13 17 0 31 9 8 13 18 10 21 -3 4 -11
0 -16 -8 -8 -11 -9 -9 -4 9 8 26 8 980 1 1151 -3 58 -10 137 -15 177 -6 40 -8
78 -5 86 8 22 78 20 119 -4 33 -20 35 -20 36 -2 0 16 1 16 9 -2 5 -11 9 -150
9 -310 1 -1187 3 -1370 14 -1315 7 30 12 94 11 143 -1 48 2 87 5 87 3 0 6 281
6 625 0 344 -3 625 -6 625 -4 0 -10 28 -13 61 -6 47 -4 64 6 70 10 7 8 9 -5 9
-11 0 -17 5 -14 13 4 12 72 15 83 4 4 -3 0 -58 -8 -121 -11 -87 -14 -217 -13
-518 1 -261 -2 -414 -8 -435 -8 -25 -8 -36 1 -45 14 -14 16 -32 3 -24 -10 7
-25 -43 -16 -52 3 -4 10 0 15 8 7 10 10 -13 12 -70 2 -95 3 -101 18 -285 16
-198 18 -197 13 5 -10 433 -11 1215 0 1235 7 13 7 20 -2 23 -14 5 -15 138 -1
147 6 4 7 12 1 22 -5 9 -5 29 -1 44 5 15 6 30 2 33 -3 3 2 6 12 6 9 0 14 -4
11 -10 -11 -17 7 -11 21 7 7 10 16 14 21 10 7 -8 11 -459 6 -887 -1 -102 -1
-245 0 -318 2 -119 0 -135 -16 -147 -18 -13 -17 -14 3 -20 19 -6 21 -12 16
-48 -11 -85 -10 -270 3 -263 4 3 7 44 5 91 -2 47 0 85 4 85 4 0 8 21 8 47 2
40 9 113 14 133 4 17 4 600 0 600 -3 0 -5 111 -5 247 0 137 -4 280 -8 318 -4
39 -10 92 -12 118 -3 27 -7 53 -11 58 -3 5 17 9 46 9 32 0 49 -4 45 -10 -3 -5
-2 -10 3 -10 11 0 7 -51 -9 -118 -6 -26 -9 -268 -9 -610 0 -449 3 -587 15
-662 8 -52 15 -140 16 -195 1 -80 3 -93 10 -65 5 19 7 80 4 135 -8 158 -16
1443 -9 1486 6 38 27 52 37 27 3 -8 6 -4 8 7 7 58 13 -110 9 -235 -3 -80 -3
-437 0 -793 3 -358 1 -652 -4 -657 -11 -11 2 -32 15 -24 5 3 9 72 8 159 -1 84
2 159 7 167 10 15 15 121 13 278 -4 326 -3 400 4 400 5 0 5 5 2 10 -4 6 -8 65
-10 131 -3 105 -1 120 12 114 13 -5 14 -3 3 10 -17 21 -22 258 -5 251 6 -2 12
2 12 10 0 8 -6 14 -13 14 -14 0 -21 24 -30 113 -6 58 -5 67 10 67 9 0 16 -4
16 -9 0 -6 12 -6 31 1 16 6 33 8 36 4 3 -3 -2 -63 -11 -133 -13 -95 -17 -196
-17 -393 1 -447 11 -779 27 -870 16 -99 18 -223 4 -251 -7 -12 -7 -19 -1 -19
5 0 12 -10 14 -22 6 -30 9 132 5 252 -6 186 -1 312 11 320 10 5 9 9 -3 13 -13
5 -15 71 -16 552 0 387 3 544 10 540 6 -4 10 -17 9 -28 -3 -48 1 -130 7 -124
4 4 8 29 8 56 3 88 16 68 16 -25 0 -49 1 -172 1 -274 1 -102 0 -306 -1 -454
-1 -147 1 -271 4 -274 3 -3 6 -120 7 -261 0 -141 4 -247 8 -236 5 11 7 23 5
27 -3 4 0 76 5 160 6 84 11 290 11 458 1 399 2 700 2 725 0 36 -30 243 -36
253 -8 13 13 20 48 16 32 -3 48 -20 41 -44 -2 -8 -9 -79 -16 -157 -14 -172 -7
-1052 11 -1243 6 -69 15 -159 18 -200 4 -41 6 255 5 659 -1 403 -5 736 -8 739
-3 3 -5 42 -4 86 0 55 3 74 9 61 6 -15 9 -8 9 28 1 29 5 46 11 42 5 -3 8 -41
7 -86 -2 -44 1 -83 5 -85 4 -3 9 22 9 55 2 75 2 77 12 87 4 4 7 -87 6 -202 -1
-115 2 -384 5 -599 4 -214 6 -497 6 -628 0 -161 3 -236 10 -232 6 4 8 21 4 40
-3 18 -1 35 4 39 6 3 7 18 3 32 -4 15 -3 59 1 98 9 81 13 1262 5 1292 -3 10
-8 56 -11 101 -4 45 -9 89 -12 98 -6 14 1 16 45 14 41 -2 50 -6 47 -18 -17
-56 -27 -222 -29 -453 -1 -148 -5 -268 -9 -268 -5 0 -8 -5 -8 -11 0 -5 4 -8 9
-5 5 3 9 -79 9 -192 1 -108 4 -250 8 -314 5 -85 3 -118 -5 -118 -6 0 -11 -4
-11 -10 0 -5 7 -7 15 -4 12 5 15 -3 15 -37 1 -54 11 -162 16 -168 2 -2 4 182
4 410 l0 414 30 0 30 0 0 -450 c0 -247 0 -460 0 -473 0 -19 2 -21 14 -10 8 7
12 17 9 21 -9 15 -3 260 7 272 5 6 9 31 8 56 -1 24 -1 60 0 79 2 41 1 314 0
450 -4 308 -7 460 -10 500 -2 25 -1 64 3 88 3 23 2 42 -3 42 -5 0 -8 17 -6 38
2 23 8 36 16 35 6 -2 12 4 12 13 0 8 -4 13 -9 10 -13 -8 -21 19 -20 62 1 36 1
37 8 7 4 -19 9 -26 14 -18 4 7 5 22 2 35 -5 21 -2 23 30 24 19 0 35 -4 35 -9
0 -5 -6 -7 -12 -5 -7 3 -19 -2 -27 -10 -13 -13 -13 -16 0 -26 13 -10 14 -89
11 -602 -3 -434 -1 -620 8 -695 7 -57 16 -171 20 -254 4 -82 5 47 2 288 -3
281 -2 437 5 437 5 0 20 -11 33 -25 l23 -25 0 -410 c0 -402 5 -528 12 -274 1
71 8 158 13 194 6 36 11 99 11 140 2 230 2 835 1 895 -1 39 -8 131 -15 205
-20 182 -22 168 27 168 24 1 46 -5 50 -11 6 -9 8 -9 8 1 0 6 5 12 12 12 7 0 5
-6 -4 -17 -15 -17 -22 -54 -35 -193 -9 -106 -4 -954 7 -1090 14 -159 19 -255
19 -352 1 -43 4 -78 9 -78 4 0 6 354 6 787 -1 788 1 917 17 878 7 -19 8 -19 8
3 1 12 5 22 11 22 5 0 9 -92 9 -237 0 -210 -2 -235 -14 -213 -8 14 -14 20 -15
15 0 -6 6 -19 14 -30 14 -20 22 -411 21 -1020 -1 -126 1 -222 3 -212 2 9 7 17
11 17 7 0 8 16 10 143 1 27 6 57 11 68 6 10 7 19 3 19 -4 0 -8 269 -9 598 -1
565 -6 731 -23 844 l-8 48 32 -3 c18 -2 37 -7 43 -11 7 -4 12 -3 12 3 0 6 7 8
15 5 10 -4 12 -11 6 -22 -21 -41 -36 -241 -35 -474 0 -76 -3 -138 -6 -138 -4
0 -3 -26 0 -57 4 -32 8 -184 9 -338 1 -180 7 -319 16 -393 8 -62 15 -154 15
-204 0 -50 3 -88 7 -84 4 3 6 130 5 281 -2 215 1 275 10 275 10 0 10 2 2 8
-18 11 -24 1075 -6 1092 7 7 11 18 8 26 -3 8 -2 14 3 14 18 0 23 -79 26 -422
7 -911 7 -1080 4 -1175 -3 -83 -2 -100 9 -90 8 8 14 58 18 138 7 149 11 202
14 209 1 3 1 120 0 260 -3 355 -2 411 11 427 9 10 9 20 1 36 -15 30 -21 217
-7 217 6 0 5 3 -2 8 -7 5 -12 42 -12 107 -1 120 -17 253 -32 272 -7 7 -9 17
-5 20 10 10 157 12 151 2 -3 -4 -1 -10 5 -14 6 -4 7 -12 4 -18 -5 -8 -3 -8 7
1 16 15 39 16 39 1 0 -6 -7 -9 -15 -5 -17 6 -16 37 -15 -651 1 -313 -2 -393
-12 -393 -7 0 -5 -5 6 -11 15 -9 16 -13 5 -21 -11 -7 -11 -11 -1 -15 9 -3 12
-41 12 -139 0 -111 -3 -139 -17 -161 -17 -26 -17 -27 0 -20 17 6 18 -3 16
-134 -1 -134 4 -179 15 -128 11 52 17 442 14 824 0 17 0 122 0 235 0 113 -1
252 -3 310 -9 278 -5 331 25 339 30 9 135 9 145 1 6 -5 17 -5 25 0 21 14 110
12 110 -1 0 -8 4 -8 14 0 12 10 73 7 85 -4 2 -3 -2 -12 -10 -22 -12 -14 -12
-16 1 -11 14 5 14 -4 7 -66 -12 -98 -27 -846 -17 -846 3 0 5 -78 5 -173 0 -94
3 -199 8 -232 4 -33 10 -120 13 -194 10 -221 24 -207 19 19 -8 317 -7 1483 1
1505 5 12 4 16 -4 11 -8 -5 -10 -2 -6 8 4 10 18 15 40 14 30 -1 34 -4 34 -30
0 -15 5 -28 10 -28 6 0 10 11 10 25 0 20 6 25 35 31 20 3 39 3 42 0 4 -4 1
-32 -5 -64 -14 -64 -36 -386 -30 -444 3 -29 0 -38 -12 -38 -10 0 -11 -3 -3 -8
7 -4 12 -48 13 -122 5 -363 4 -517 -2 -507 -5 8 -8 8 -8 1 0 -6 3 -14 8 -18 4
-4 7 -26 7 -49 1 -38 10 -154 21 -267 2 -25 6 -83 9 -129 8 -156 15 -95 15
129 0 200 2 222 15 204 13 -16 16 -17 25 -4 7 10 10 -52 10 -197 0 -140 4
-214 11 -218 7 -5 9 12 6 54 -2 34 -1 61 2 61 3 0 7 42 7 93 1 50 4 106 7 122
3 17 8 48 11 70 5 32 4 35 -3 15 -12 -31 -12 126 -1 176 4 19 5 32 1 30 -3 -2
-7 156 -8 352 0 197 -4 406 -8 466 -5 73 -3 106 3 102 6 -3 13 -2 17 4 3 5 -1
10 -9 10 -15 0 -19 16 -30 105 -3 22 -5 41 -6 43 0 1 -7 2 -15 2 -10 0 -15 -9
-14 -27 l1 -28 8 25 c10 31 9 70 15 -640 3 -311 2 -573 -1 -582 -3 -10 -9 -18
-14 -18 -27 0 -31 57 -36 457 -6 392 -5 418 12 430 15 11 15 13 2 13 -14 0
-15 20 -11 168 2 92 4 182 3 200 -1 30 1 32 36 32 21 0 46 -7 56 -17 15 -14
19 -14 16 -3 -2 11 7 15 37 16 54 2 60 -4 31 -31 -21 -19 -26 -35 -31 -104 -4
-44 -10 -81 -14 -81 -3 0 -6 -254 -6 -565 0 -311 3 -565 6 -565 3 0 7 -15 8
-32 14 -223 28 -368 35 -375 5 -5 6 57 2 137 -4 115 -11 1496 -7 1548 1 7 5
11 10 8 5 -4 12 0 14 6 3 7 6 3 6 -9 1 -13 6 -23 11 -23 6 0 10 -5 10 -11 0
-5 -4 -7 -10 -4 -5 3 -10 -1 -10 -10 0 -27 25 -11 28 18 3 27 39 46 61 32 7
-4 11 8 11 33 0 28 4 39 16 39 12 0 14 -6 8 -26 -4 -14 -8 -62 -9 -106 -1 -44
-6 -125 -10 -180 -8 -100 -8 -878 0 -989 2 -32 -1 -68 -6 -79 -7 -12 -7 -17
-1 -13 9 5 27 -114 21 -139 -1 -6 0 -21 4 -35 3 -14 8 -60 11 -104 3 -43 8
-81 12 -85 3 -3 4 92 1 212 -5 191 -3 218 10 213 8 -3 19 -6 24 -6 5 0 9 -81
9 -189 0 -116 4 -192 10 -196 6 -4 10 19 11 62 2 138 9 228 16 230 5 2 7 84 5
183 -2 115 1 187 8 200 6 11 7 20 2 20 -5 0 -10 26 -11 58 -1 31 -3 80 -5 108
-1 43 1 51 14 47 13 -4 13 -3 0 9 -9 7 -16 27 -16 43 -4 222 -16 597 -20 637
-3 29 -9 57 -15 63 -12 12 -12 38 0 30 6 -3 14 2 19 11 14 24 25 -1 12 -26 -6
-12 -7 -20 -1 -20 5 0 12 -8 14 -17 3 -13 5 -11 7 7 1 22 2 22 9 6 6 -16 9
-15 23 13 22 46 27 19 18 -99 -4 -52 -5 -101 -2 -108 2 -7 -4 -12 -14 -12 -15
0 -16 -2 -5 -9 12 -8 13 -32 7 -138 -11 -189 -12 -323 -3 -323 4 0 7 -4 7 -10
0 -5 -8 -10 -17 -10 -14 0 -15 -2 -5 -9 10 -6 13 -32 10 -104 -2 -52 -1 -94 2
-92 7 5 2 -304 -5 -315 -4 -6 -1 -10 6 -10 8 0 10 -15 7 -50 -3 -27 -2 -48 1
-46 3 2 7 -8 7 -22 1 -15 4 -49 8 -76 4 -31 2 -54 -5 -62 -7 -9 -8 -14 -1 -14
12 0 21 -47 23 -127 1 -34 5 -66 8 -72 4 -6 5 246 3 559 -3 347 -1 570 5 570
5 0 8 95 6 235 -2 162 0 235 7 235 7 0 11 -20 10 -47 -1 -27 2 -196 7 -378 4
-181 8 -520 8 -753 0 -340 2 -419 13 -405 6 9 12 46 13 82 1 36 3 95 5 131 15
218 7 1230 -10 1360 -12 93 -19 126 -28 144 -9 17 -7 19 29 14 22 -3 46 -2 54
3 8 4 21 4 27 0 10 -6 10 -28 -3 -107 -14 -83 -16 -190 -15 -673 0 -332 4
-590 10 -610 5 -20 9 -56 9 -81 -1 -51 21 -283 27 -289 2 -2 4 25 4 60 0 35 4
71 10 79 6 9 5 17 -3 22 -11 7 -14 556 -6 1258 l2 195 8 -130 c4 -71 8 -204 8
-295 0 -91 1 -201 2 -245 2 -70 3 -75 9 -35 5 35 7 26 7 -45 0 -67 -2 -80 -7
-50 -6 36 -7 33 -9 -27 0 -37 4 -70 9 -73 8 -5 8 -11 0 -20 -7 -9 -8 -69 -3
-191 4 -99 6 -197 5 -219 -3 -89 -2 -319 2 -323 3 -2 9 16 14 40 7 29 10 -208
11 -724 l1 -767 -34 2 c-37 2 -43 18 -11 29 18 5 18 6 -3 7 -16 1 -26 -6 -29
-19 -6 -23 -24 -25 -54 -8 -16 10 -23 10 -26 2 -2 -8 -15 -9 -37 -4 -46 10
-56 18 -50 38 4 14 3 13 -7 -2 -9 -15 -9 -20 5 -28 29 -16 18 -30 -20 -23 -20
3 -40 7 -44 10 -21 13 -69 11 -75 -3 -3 -9 -10 -11 -18 -5 -6 5 -28 8 -47 8
-19 0 -38 5 -42 10 -5 6 -8 5 -8 -2 0 -7 -7 -10 -17 -6 -12 5 -14 3 -9 -8 6
-11 4 -10 -6 1 -7 8 -24 21 -37 28 -22 13 -23 13 -17 -11 5 -22 3 -24 -19 -19
-14 2 -28 9 -31 14 -3 5 -13 3 -22 -4 -13 -11 -14 -11 -8 1 11 17 -14 33 -31
20 -6 -6 -20 -9 -30 -6 -15 3 -13 6 10 15 15 6 27 14 27 17 0 4 -5 3 -11 0 -6
-4 -17 1 -25 11 -14 18 -15 18 -9 -3 3 -12 1 -24 -4 -27 -6 -4 -7 -14 -4 -24
5 -14 4 -15 -8 -6 -19 15 -93 11 -113 -5 -13 -11 -15 -10 -11 9 2 13 2 20 -2
17 -3 -4 -14 -2 -24 4 -14 7 -25 6 -40 -5 -12 -8 -28 -12 -35 -9 -8 3 -20 1
-27 -4 -16 -13 -59 -14 -52 -2 4 5 2 9 -3 9 -5 0 -8 18 -7 40 1 22 -2 40 -6
40 -5 0 -9 -4 -9 -10 0 -5 -7 -7 -15 -4 -9 4 -15 0 -15 -9 0 -11 -7 -14 -24
-11 -14 2 -28 -1 -32 -7 -5 -8 -2 -10 7 -5 12 7 -16 -19 -46 -41 -14 -11 -59
-10 -68 2 -4 6 -11 3 -18 -8 -8 -14 -21 -17 -60 -15 -27 2 -49 6 -49 9 0 4
-18 5 -40 3 -21 -2 -42 1 -46 7 -3 6 -19 7 -34 4 -16 -3 -31 -2 -35 4 -4 7
-12 8 -24 2 -9 -6 -33 -9 -52 -9 -19 1 -28 3 -21 5 6 3 12 14 12 24 0 11 4 17
10 14 6 -3 10 -1 10 5 0 7 -8 9 -20 5 -34 -11 -22 13 16 31 23 11 32 20 25 27
-6 6 -19 0 -38 -17 -15 -14 -36 -26 -45 -26 -24 0 -12 -26 15 -35 19 -6 20 -8
5 -12 -10 -2 -18 -10 -18 -16 0 -7 -7 -3 -16 8 -14 19 -79 31 -67 12 3 -5 16
-7 29 -4 15 3 24 0 24 -9 0 -16 -69 -12 -80 5 -5 10 -10 9 -21 -2 -17 -16
-164 -33 -154 -17 4 6 -7 8 -29 5 -34 -4 -36 -2 -36 23 0 19 -3 23 -9 13 -5
-8 -14 -10 -22 -6 -8 5 -6 -1 4 -12 17 -19 17 -20 -5 -18 -13 0 -34 7 -48 15
-14 8 -29 13 -34 12 -5 -2 -6 4 -3 13 4 8 2 15 -3 15 -5 0 -7 8 -4 18 5 16 5
16 -5 0 -7 -9 -20 -15 -31 -13 -11 2 -18 0 -15 -6 4 -5 2 -9 -4 -9 -6 0 -8 -7
-5 -15 4 -8 10 -12 15 -9 5 3 9 1 9 -5 0 -5 12 -12 28 -14 26 -4 26 -4 -5 -6
-17 0 -33 -4 -36 -8 -2 -5 -2 -2 0 5 2 11 -9 13 -46 10 -27 -1 -47 0 -44 5 2
4 -1 7 -7 7 -6 0 -9 4 -6 9 3 5 -1 11 -8 14 -8 3 -17 1 -20 -6 -5 -9 -7 -9
-12 1 -9 18 -48 16 -40 -3 5 -14 -16 -21 -46 -16 -5 0 -8 -4 -8 -10 0 -5 -4
-7 -10 -4 -5 3 -10 0 -10 -7 0 -7 -9 -2 -20 12 -16 21 -18 22 -14 5 4 -16 0
-21 -16 -22 -11 -1 -18 3 -14 8 3 6 -2 9 -11 7 -14 -2 -24 7 -42 41 -1 1 -6 0
-12 -4 -8 -4 -8 -12 -1 -26 13 -23 1 -25 -26 -3 -14 11 -15 14 -3 11 12 -4 16
1 14 16 -1 12 -3 28 -4 35 0 8 -6 10 -13 6 -9 -5 -8 -2 1 9 8 10 12 20 9 22
-3 3 -11 -2 -18 -11 -11 -13 -11 -19 -1 -36 10 -17 10 -22 0 -28 -7 -5 -18 -6
-25 -3 -10 4 -10 9 -1 24 9 15 8 22 -10 38 -11 11 -24 17 -27 14 -11 -11 -6
-23 8 -23 17 0 31 -18 21 -28 -3 -3 -11 0 -16 8 -9 13 -10 12 -6 -1 3 -9 -1
-26 -9 -38 -14 -20 -16 -20 -39 -5 -16 10 -25 12 -25 5 0 -6 7 -11 15 -11 17
0 20 -16 5 -25 -6 -3 -10 -1 -10 5 0 6 -5 8 -10 5 -6 -4 -16 -3 -23 2 -14 11
-27 11 -46 -1 -9 -6 -12 -5 -8 1 4 7 -5 10 -26 8 -21 -2 -39 4 -54 18 -13 11
-23 15 -23 9 0 -7 5 -12 10 -12 6 0 10 -4 10 -9 0 -10 -47 -7 -100 8 -26 7
-29 9 -12 10 13 1 20 6 17 11 -3 6 -1 10 4 10 6 0 11 -4 11 -9 0 -5 11 -8 25
-8 15 0 24 4 22 11 -3 6 -9 10 -15 9 -6 -2 -9 3 -6 10 3 10 -10 12 -52 10 -53
-2 -91 -13 -47 -13 18 0 20 -4 14 -32 l-7 -33 -79 3 c-44 2 -88 3 -99 3 -14 0
-17 5 -12 22 3 12 6 26 6 30 0 5 4 6 9 2 6 -3 15 4 21 15 9 17 8 20 -12 20
-16 0 -19 -3 -10 -9 11 -7 11 -9 -2 -14 -9 -4 -16 -14 -16 -22 0 -9 -5 -13
-11 -9 -6 3 -9 14 -6 24 3 11 -2 21 -10 24 -11 4 -13 1 -8 -14 7 -22 -4 -27
-22 -9 -12 12 -5 59 9 59 5 0 6 -4 3 -10 -3 -5 1 -10 9 -10 27 0 29 22 5 44
-13 12 -29 21 -36 21 -15 0 -30 -15 -15 -15 7 0 12 -7 12 -16 0 -12 -7 -15
-27 -11 -26 5 -26 4 -8 -9 18 -13 18 -14 -8 -16 -15 0 -33 -1 -39 -2 -7 -1
-12 5 -11 12 2 7 -7 12 -21 12 -33 0 -43 -17 -14 -23 17 -3 14 -5 -9 -6 -18 0
-33 -5 -33 -11 0 -5 -7 -10 -16 -10 -8 0 -12 5 -8 11 4 8 -1 9 -16 4 -15 -5
-20 -4 -16 4 4 6 3 11 -2 11 -5 0 -12 -9 -15 -21 -4 -14 1 -22 15 -28 14 -5
18 -10 10 -15 -7 -4 -12 -4 -12 1 0 4 -4 2 -9 -6 -10 -16 -61 -7 -61 10 0 6 7
9 15 5 24 -9 17 10 -10 28 -14 9 -23 22 -19 27 3 6 -4 5 -15 -3 -22 -13 -22
-13 -1 -16 11 -2 20 -8 20 -13 0 -6 -4 -8 -9 -5 -5 4 -20 1 -33 -4 -22 -10
-22 -10 5 -5 23 5 29 1 37 -20 6 -15 17 -25 30 -25 17 0 19 -2 8 -14 -7 -8
-15 -10 -18 -6 -7 11 -60 10 -60 -1 0 -5 -5 -9 -11 -9 -6 0 -9 7 -5 15 5 14 2
13 -24 0 -23 -12 -30 -13 -30 -3 0 9 -3 9 -8 2 -4 -5 -16 -10 -27 -11 -11 0
-32 -3 -48 -8 -23 -6 -26 -5 -21 9 3 9 10 16 15 16 5 0 9 5 9 10 0 6 -8 5 -20
-2 -11 -7 -20 -17 -20 -23 0 -12 -59 -14 -77 -2 -7 5 -13 6 -13 3 0 -3 -11 -1
-25 4 -16 6 -25 6 -25 0 0 -5 -7 -7 -15 -4 -8 4 -22 1 -30 -6 -8 -6 -23 -9
-35 -5 -13 4 -20 2 -20 -7 0 -8 -4 -6 -11 5 -11 19 -45 23 -51 6 -2 -7 -12 -7
-31 0 -22 9 -29 8 -33 -4 -4 -8 -10 -15 -16 -15 -5 0 -6 4 -3 10 3 5 3 10 -2
11 -33 3 -51 7 -70 13 -14 5 -23 3 -23 -3 0 -6 3 -10 8 -10 4 1 16 1 27 0 15
-1 17 -3 6 -10 -7 -5 -27 -7 -45 -6 -17 2 -39 -1 -49 -7 -12 -6 -17 -5 -15 4
2 9 -11 13 -44 13 -26 0 -52 6 -59 12 -7 7 -22 13 -32 13 -14 0 -17 4 -12 18
4 9 10 27 12 39 3 12 11 28 19 34 8 6 14 20 14 31 0 10 5 16 10 13 6 -3 10 -1
10 4 0 14 -11 13 -32 -3 -10 -7 -18 -21 -18 -30 0 -9 -4 -16 -9 -16 -4 0 -6
-11 -4 -24 4 -20 -2 -29 -28 -45 -19 -12 -38 -22 -44 -24 -6 -2 -6 -9 2 -18 9
-11 6 -14 -17 -16 -22 -2 -28 1 -23 13 5 15 -22 43 -42 43 -5 0 -2 -6 9 -14
10 -7 15 -18 11 -24 -12 -20 -43 -11 -63 16 -16 22 -23 25 -34 15 -8 -6 -19
-8 -23 -4 -5 4 -5 1 -1 -6 6 -10 11 -10 22 -1 8 6 15 10 17 8 26 -46 28 -51
16 -43 -18 11 -109 11 -109 0 0 -4 -11 -1 -25 8 -14 9 -25 12 -25 6 0 -5 -8
-10 -17 -10 -15 0 -16 2 -3 10 12 7 12 10 1 10 -7 0 -11 6 -8 14 8 19 -13 36
-42 35 -23 -1 -23 -2 7 -10 28 -8 31 -12 22 -29 -9 -16 -21 -20 -58 -19 -26 0
-57 -2 -69 -5 -13 -3 -23 -1 -23 4 0 10 -40 7 -60 -5 -13 -8 -13 -6 -1 8 8 10
9 17 3 17 -6 0 -14 -5 -17 -11 -4 -6 -14 -8 -22 -5 -8 3 -11 1 -8 -4 11 -18
-10 -10 -28 10 -9 11 -25 20 -34 20 -14 -1 -13 -3 6 -14 21 -12 22 -14 5 -20
-10 -4 -20 -3 -22 3 -3 9 -34 8 -111 -4 -13 -2 -35 4 -49 13 -24 16 -26 16
-20 0 5 -12 3 -15 -8 -11 -7 3 -14 9 -14 15 0 5 -5 6 -10 3 -6 -4 -8 -10 -6
-14 8 -12 -48 -6 -73 8 -23 13 -24 14 -7 27 17 12 17 13 -2 11 -11 0 -20 -4
-20 -7 2 -18 -3 -32 -9 -27 -3 4 -12 2 -20 -5 -7 -6 -17 -7 -21 -3 -4 4 -1 10
5 12 15 5 18 33 4 33 -5 0 -11 -8 -14 -19 -5 -20 -48 -33 -69 -20 -7 5 -23 2
-37 -8 -22 -14 -24 -14 -18 0 4 11 2 14 -9 10 -7 -3 -14 0 -14 5 0 6 -9 10
-20 9 -11 -1 -20 -4 -20 -8 0 -11 -124 -1 -128 10 -2 6 -13 4 -27 -5 -13 -9
-28 -13 -34 -10 -14 9 -42 -5 -34 -18 4 -7 2 -8 -5 -1 -22 20 -17 37 11 39 15
1 27 -2 27 -6 0 -4 4 -8 9 -8 6 0 8 9 6 20 -3 17 0 19 23 15 l27 -5 -28 11
c-15 6 -25 14 -22 19 7 12 -16 27 -52 35 -27 5 -32 4 -27 -9 3 -8 9 -15 12
-15 4 1 18 -2 31 -7 23 -7 24 -8 5 -15 -10 -4 -32 -8 -48 -8 -21 -1 -27 3 -22
14 3 9 0 15 -9 15 -13 0 -17 -6 -14 -26 0 -4 -5 -10 -13 -15 -10 -6 -9 -11 7
-23 21 -16 10 -22 -14 -7 -19 12 -22 51 -4 51 7 0 13 5 13 10 0 6 -9 10 -20
10 -11 0 -20 -5 -20 -11 0 -7 -8 -18 -17 -25 -17 -13 -17 -13 0 -14 9 0 17 -7
17 -15 0 -18 -46 -14 -64 5 -8 8 -7 11 3 8 7 -2 16 3 18 10 3 6 0 12 -6 12 -6
0 -11 7 -11 15 0 8 -6 15 -14 15 -19 0 -26 21 -14 44 7 12 7 16 0 12 -6 -3
-12 -1 -14 6 -3 9 -6 9 -12 0 -4 -7 -2 -12 5 -12 7 0 4 -7 -7 -16 -10 -8 -14
-13 -8 -10 7 3 15 -1 18 -10 8 -22 8 -24 -7 -18 -18 6 -52 -20 -43 -35 4 -6
11 -9 16 -6 4 3 10 -4 13 -15 3 -13 1 -18 -6 -13 -6 4 -26 6 -44 5 -27 -2 -31
0 -28 18 2 11 -3 24 -13 30 -15 9 -15 10 3 8 13 -2 19 2 17 12 -1 10 3 9 14
-5 15 -17 16 -18 10 -2 -5 15 -2 17 14 12 11 -4 20 -2 20 4 0 6 -3 10 -8 10
-19 -3 -33 2 -27 11 3 6 0 10 -7 11 -7 0 -25 2 -40 3 -14 1 -25 -1 -22 -5 2
-4 -13 -11 -34 -16 -27 -7 -44 -5 -62 4 -21 12 -22 14 -5 12 37 -3 46 1 54 24
6 15 4 24 -5 30 -7 4 -11 13 -8 21 3 7 -2 19 -10 26 -9 7 -13 17 -9 24 3 6 0
6 -8 -2 -11 -10 -10 -15 4 -29 16 -16 16 -18 -5 -30 -18 -10 -19 -12 -6 -13
21 0 13 -30 -8 -30 -8 0 -14 -4 -14 -9 0 -5 -10 -11 -23 -15 -30 -7 -30 -33 0
-41 16 -4 23 -13 23 -30 0 -18 4 -23 15 -19 8 4 15 1 15 -5 0 -6 -9 -11 -20
-11 -11 0 -20 5 -20 11 0 8 -5 8 -15 -1 -8 -7 -24 -10 -35 -7 -11 3 -20 1 -20
-4 0 -4 -6 -6 -12 -4 -7 3 -36 -1 -64 -8 -59 -15 -92 -3 -80 30 5 12 4 14 -2
8 -6 -5 -12 -19 -14 -30 -4 -21 -25 -24 -85 -10 -25 6 -33 4 -33 -6 0 -24 -87
-11 -108 15 -9 13 -22 21 -28 19 -6 -2 -17 3 -24 12 -10 12 -10 18 0 30 8 9 8
15 2 15 -6 0 -10 14 -10 30 1 17 -1 33 -4 35 -3 3 -6 -18 -7 -46 0 -30 -6 -56
-13 -61 -10 -6 -9 -8 2 -9 8 -1 18 -1 22 0 12 2 10 -17 -2 -24 -6 -3 -10 -1
-10 4 0 6 -4 11 -10 11 -5 0 -10 -8 -10 -17 0 -9 -3 -13 -7 -10 -3 4 -13 1
-21 -6 -12 -9 -16 -9 -19 0 -2 7 -11 9 -19 6 -8 -3 -30 -2 -49 1 -32 6 -34 9
-25 29 10 20 9 20 -10 -3 -17 -19 -30 -24 -58 -21 -21 1 -43 10 -51 19 -13 16
-13 16 -8 0 7 -21 -4 -23 -21 -6 -9 9 -12 9 -12 -1 0 -10 -7 -9 -27 4 -24 16
-26 16 -20 1 4 -10 3 -14 -3 -11 -5 3 -15 -1 -21 -8 -11 -12 -18 -11 -44 2
-16 9 -33 21 -37 26 -5 6 -8 6 -8 -2 0 -12 -55 -35 -64 -26 -3 4 -6 0 -6 -8 0
-11 -2 -11 -10 1 -5 8 -10 11 -10 6 0 -5 -6 -3 -14 3 -10 8 -22 7 -49 -4 -35
-14 -37 -14 -49 5 -14 23 -50 28 -42 6 4 -10 -10 -13 -69 -12 -74 1 -75 1 -70
26 4 24 4 24 -11 5 -8 -11 -12 -24 -9 -29 6 -9 -17 -5 -66 10 -17 5 -22 4 -17
-4 4 -7 2 -12 -4 -12 -6 0 -13 7 -17 16 -5 13 -7 13 -14 2 -7 -11 -12 -11 -31
1 -21 13 -22 13 -10 -2 9 -10 10 -17 2 -22 -7 -4 -10 -139 -10 -411 l0 -404
4126 0 c3694 0 4125 2 4114 15 -11 13 -10 14 4 9 9 -3 16 -10 16 -16 0 -12 43
-6 52 7 5 6 8 6 8 -1 0 -18 62 -15 77 4 12 16 13 16 7 0 -6 -17 6 -18 162 -16
141 1 171 4 181 17 11 14 12 14 13 -1 0 -15 34 -17 435 -17 330 1 434 3 428
12 -4 8 -1 8 9 -1 12 -10 264 -12 1242 -12 1198 1 1226 1 1216 20 -5 10 -10
22 -10 27 1 4 8 -5 17 -22 10 -18 18 -25 21 -17 3 9 7 10 17 2 9 -8 15 -8 20
0 4 6 13 7 23 1 9 -4 40 -7 67 -7 50 2 50 2 49 34 0 18 4 32 10 32 6 0 6 4 -1
11 -6 6 -9 18 -6 27 4 10 2 13 -5 8 -7 -4 -12 -17 -12 -29 0 -17 -2 -19 -9 -8
-6 10 -4 22 7 37 10 12 18 18 20 14 2 -5 10 -6 18 -3 8 3 21 0 28 -6 8 -7 16
-8 18 -4 3 4 4 3 2 -4 -1 -6 13 -14 31 -17 19 -4 36 -10 39 -14 8 -13 -49 -8
-62 5 -8 7 -17 11 -22 8 -5 -3 -11 1 -13 7 -4 10 -6 10 -6 0 -1 -7 -5 -11 -9
-8 -4 2 -8 -3 -9 -12 -1 -9 -3 -32 -5 -50 l-4 -33 48 2 c37 2 47 6 43 17 -3 7
-5 16 -5 20 0 3 -6 -3 -14 -13 -13 -19 -14 -18 -13 8 2 28 11 35 22 17 4 -6
10 -8 15 -5 4 3 7 -3 6 -13 0 -9 5 -16 12 -14 6 1 12 -2 12 -7 0 -4 31 -8 69
-7 55 1 67 4 63 15 -4 10 -1 12 8 6 10 -6 11 -2 6 19 -9 36 0 33 13 -4 6 -18
6 -28 1 -25 -6 4 -10 1 -10 -5 0 -13 48 -11 67 3 6 4 14 3 18 -3 3 -6 46 -10
101 -10 74 0 93 3 88 12 -6 10 -4 10 8 0 9 -7 38 -12 67 -11 49 2 51 3 51 31
0 15 -4 28 -10 28 -5 0 -10 5 -10 11 0 5 5 7 10 4 15 -9 13 168 -2 184 -9 9
-9 12 -1 7 16 -9 18 1771 2 1791 -8 9 -8 13 0 13 7 0 11 373 11 1335 l0 1335
-6490 0 -6490 0 0 -200z m10746 -153 c35 -1 68 -8 78 -16 14 -12 21 -12 37 -3
11 7 24 10 28 7 5 -2 24 -7 42 -9 68 -10 146 -27 204 -45 33 -11 75 -23 93
-26 17 -4 32 -11 32 -16 0 -5 15 -9 33 -9 17 0 61 -16 97 -36 36 -19 74 -38
85 -41 40 -13 171 -86 196 -109 14 -13 28 -21 32 -18 4 4 9 -1 13 -10 3 -9 12
-16 20 -16 8 0 14 -4 14 -10 0 -5 7 -10 15 -10 9 0 18 -7 21 -15 4 -8 12 -15
19 -15 6 0 37 -24 67 -52 30 -29 66 -63 79 -74 13 -12 47 -48 74 -79 28 -32
57 -65 65 -74 37 -40 88 -109 105 -145 11 -21 32 -50 46 -65 30 -31 127 -225
165 -332 14 -41 30 -78 34 -84 7 -9 17 -48 26 -98 1 -12 10 -47 19 -77 9 -30
18 -75 21 -100 2 -25 6 -70 10 -100 10 -85 11 -91 12 -160 1 -144 -3 -266 -11
-277 -4 -6 -9 -33 -12 -60 -3 -26 -14 -90 -24 -141 -10 -51 -16 -105 -14 -120
3 -18 2 -23 -4 -14 -12 15 -22 -5 -53 -103 -12 -38 -26 -74 -31 -79 -5 -6 -4
-15 2 -22 7 -9 5 -16 -10 -24 -12 -6 -47 -64 -82 -135 -33 -69 -65 -125 -70
-125 -5 0 -9 -5 -9 -12 0 -6 -20 -37 -43 -67 -24 -31 -46 -61 -48 -67 -9 -27
-283 -314 -299 -314 -6 0 -8 -5 -4 -12 4 -6 3 -8 -3 -5 -11 7 -168 -100 -174
-118 -6 -14 -69 -44 -82 -39 -7 2 -17 -6 -22 -18 -6 -13 -19 -24 -30 -25 -11
0 -84 -30 -162 -66 -78 -36 -145 -62 -148 -59 -3 4 -9 1 -14 -6 -8 -14 -196
-62 -244 -62 -18 0 -38 -5 -45 -12 -14 -14 -230 -18 -250 -4 -8 5 -33 2 -68
-9 -46 -14 -76 -16 -163 -11 -58 3 -130 12 -160 20 -30 8 -57 15 -60 14 -3 -1
-13 1 -21 4 -20 8 -137 35 -175 42 -16 2 -68 22 -115 44 -47 21 -105 47 -130
57 -25 11 -57 27 -72 37 -14 10 -33 18 -42 18 -9 0 -19 7 -22 15 -3 8 -15 17
-27 21 -30 9 -118 64 -143 88 -11 12 -52 48 -90 81 -131 113 -269 260 -342
363 -39 56 -72 104 -72 106 0 2 -24 43 -53 92 -93 155 -187 396 -187 479 0 13
-4 26 -9 29 -4 3 -11 23 -15 43 -3 21 -8 49 -10 63 -20 113 -26 228 -22 383 3
97 8 182 12 188 3 6 10 43 15 83 13 115 155 520 189 541 6 3 10 14 10 23 0 20
93 167 114 179 7 4 23 26 34 48 42 82 234 287 351 375 19 14 43 33 54 43 12
10 36 27 54 38 18 11 33 26 33 31 0 6 3 9 6 5 6 -5 36 9 144 67 72 39 218 106
231 106 9 0 30 7 47 16 17 8 48 18 69 21 21 3 62 14 91 24 29 10 65 19 80 19
15 0 59 7 97 15 39 8 122 18 185 21 63 4 116 7 117 8 1 1 26 0 55 -1 29 -2 80
-5 114 -6z m-8322 -42 c11 -12 21 -13 42 -5 36 14 60 6 42 -14 -8 -8 -19 -11
-28 -6 -8 4 -21 5 -28 3 -7 -3 -20 1 -29 9 -13 10 -17 10 -20 1 -6 -16 -39
-17 -48 -3 -5 8 -11 7 -21 -1 -8 -6 -14 -8 -14 -4 0 5 -8 1 -18 -8 -10 -10
-22 -14 -26 -10 -3 4 -33 7 -66 8 -43 0 -54 -2 -42 -10 23 -13 141 -23 145
-11 2 5 14 5 27 1 l25 -8 -24 -9 c-14 -5 -62 -4 -115 1 -55 6 -95 6 -101 0
-13 -13 -59 -11 -74 4 -11 10 -13 9 -7 -1 6 -10 -8 -12 -61 -11 -37 1 -77 -2
-89 -6 -13 -4 -27 -1 -36 9 -9 8 -18 12 -22 9 -3 -4 -6 2 -6 12 0 17 -1 17
-18 2 -25 -23 -35 -21 -27 4 6 19 4 20 -24 14 -21 -4 -31 -3 -31 5 0 6 -6 10
-12 7 -7 -2 -13 -12 -13 -22 0 -27 -92 -29 -98 -3 -5 19 -27 25 -27 7 0 -5 5
-7 11 -3 7 4 10 1 7 -6 -7 -21 -28 -24 -28 -3 0 13 -8 18 -30 18 -16 0 -30 -3
-30 -7 0 -5 11 -8 25 -8 14 0 25 -4 25 -9 0 -5 -12 -8 -27 -6 -16 2 -33 4 -40
4 -7 1 -17 11 -24 22 -14 27 5 43 33 28 12 -6 25 -6 39 2 17 8 20 8 14 -1 -5
-8 -2 -11 11 -7 56 15 97 18 105 6 6 -10 13 -10 33 -1 17 8 26 8 26 1 0 -6 5
-7 11 -3 6 3 30 7 54 8 34 1 41 -1 33 -11 -8 -10 -6 -13 6 -13 9 0 16 7 16 15
0 8 7 15 16 15 20 0 47 -27 39 -40 -4 -6 6 -10 24 -10 21 0 31 5 31 15 0 9 -9
15 -24 15 -14 0 -28 5 -31 10 -9 14 39 12 53 -2 8 -8 12 -8 12 -1 0 7 38 10
115 10 64 -1 111 -3 105 -5 -5 -2 -10 -8 -10 -13 0 -6 7 -6 18 -1 9 5 23 7 30
5 6 -3 12 0 12 6 0 5 28 12 63 14 34 2 72 4 84 5 12 1 28 -5 37 -13z m200 6
c11 -17 69 -22 85 -7 19 17 241 18 253 1 5 -6 8 -6 8 3 0 6 7 12 15 12 8 0 15
-4 15 -9 0 -6 12 -6 32 0 20 5 34 5 38 -1 3 -5 17 -7 30 -4 39 9 251 11 288 3
17 -4 32 -3 32 1 0 4 25 7 55 6 30 0 55 -4 55 -8 0 -5 -6 -8 -12 -8 -10 0 -10
-2 -1 -8 8 -5 9 -12 2 -22 -8 -13 -10 -13 -19 0 -9 13 -11 13 -19 0 -10 -16
-48 -19 -69 -6 -7 4 -20 2 -28 -5 -10 -8 -18 -9 -25 -2 -7 7 -22 8 -40 3 -16
-5 -31 -5 -34 -1 -2 5 -17 6 -32 4 -63 -10 -83 -9 -82 1 4 32 -2 36 -23 17
-11 -11 -25 -18 -30 -15 -4 3 -8 1 -8 -4 0 -15 -59 -23 -81 -12 -13 7 -19 7
-19 0 0 -5 -5 -10 -11 -10 -5 0 -7 5 -4 10 3 6 2 10 -4 10 -5 0 -12 -4 -15 -9
-7 -10 -81 -4 -119 11 -22 9 -31 8 -37 -2 -6 -9 -20 -11 -50 -6 -32 5 -41 4
-37 -6 3 -8 -4 -13 -17 -13 -14 0 -23 7 -23 17 -1 11 3 15 13 11 8 -3 14 -1
14 4 0 6 -25 10 -55 11 -42 0 -55 -3 -55 -15 0 -9 6 -13 14 -10 14 6 32 -21
21 -31 -3 -3 -5 -1 -5 4 0 6 -28 9 -65 7 -67 -2 -90 13 -35 24 36 7 48 22 29
34 -12 8 -12 11 1 19 19 12 47 13 54 1z m1278 -13 c-2 -10 1 -18 7 -18 6 0 11
7 11 15 0 12 9 14 43 9 23 -3 47 -5 52 -4 29 4 366 5 347 1 -22 -6 -22 -6 -3
-23 18 -15 20 -15 26 9 l6 25 108 -5 c60 -2 114 -8 121 -12 8 -5 11 -4 7 2 -6
10 64 9 151 -2 18 -2 44 0 57 5 12 5 26 6 29 2 6 -5 184 -6 212 -1 5 1 13 1
18 0 5 0 183 -4 395 -7 212 -3 393 -6 401 -6 8 0 69 3 135 7 105 6 196 8 258
6 11 -1 15 -6 11 -12 -4 -7 1 -7 16 1 12 7 35 9 51 6 15 -3 31 -2 33 3 6 10
199 7 215 -3 6 -4 11 -3 11 2 0 6 62 9 156 7 121 -2 158 -6 167 -18 7 -8 20
-17 30 -21 15 -5 17 -2 12 14 -4 12 -2 20 5 20 6 0 8 -4 5 -10 -8 -14 21 -13
44 2 15 9 24 7 46 -10 15 -12 32 -19 39 -15 6 4 36 8 67 9 31 1 65 7 75 12 14
7 25 6 39 -4 10 -8 27 -14 37 -14 10 0 18 -4 18 -10 0 -5 -4 -10 -10 -10 -5 0
-10 -5 -10 -10 0 -6 11 -3 25 6 14 9 25 13 25 8 0 -5 14 6 30 24 24 26 35 32
52 26 13 -4 35 -7 50 -6 19 0 28 -4 28 -15 0 -14 2 -15 18 -1 26 23 151 23
177 -1 34 -30 53 -32 78 -7 22 22 30 23 180 24 150 1 157 1 157 -18 0 -13 -7
-20 -19 -20 -10 0 -21 -7 -24 -14 -5 -12 -34 -15 -154 -15 -228 1 -273 -1
-273 -11 0 -5 -10 -7 -21 -5 -12 2 -40 5 -63 7 -23 1 -46 9 -53 17 -11 14 -12
14 -13 -4 -1 -17 -3 -17 -12 5 -11 25 -11 25 -15 3 -5 -25 -5 -25 -123 -27
-67 -1 -77 1 -94 22 -18 22 -19 22 -36 5 -10 -10 -16 -21 -13 -25 2 -5 -8 -8
-24 -9 -15 -1 -55 -3 -88 -6 -78 -6 -92 -6 -335 2 -113 4 -239 6 -280 6 -41 0
-89 3 -107 8 -21 6 -33 6 -36 -2 -4 -13 -97 -12 -106 1 -3 5 -16 8 -28 7 -12
-1 -20 2 -17 7 3 4 0 8 -5 8 -6 0 -11 -4 -11 -9 0 -8 -156 -5 -239 5 -32 4
-45 11 -48 25 -5 18 -7 18 -29 -6 -18 -19 -30 -24 -45 -20 -12 4 -50 7 -85 6
-41 0 -64 3 -64 10 0 8 -5 7 -15 -1 -13 -11 -20 -9 -38 9 -26 24 -42 28 -34 8
6 -15 -24 -19 -34 -5 -7 11 -59 -1 -59 -13 0 -5 -7 -9 -15 -9 -8 0 -14 5 -13
11 2 6 -3 14 -11 17 -8 2 -11 0 -7 -6 3 -6 -11 -12 -37 -14 -65 -7 -231 3
-244 14 -9 7 -13 7 -13 0 0 -5 -13 -12 -29 -14 -17 -2 -28 -1 -25 3 2 4 0 10
-6 14 -6 3 -13 -1 -16 -9 -6 -15 -28 -17 -49 -5 -5 4 -19 5 -30 3 -11 -2 -69
-4 -130 -4 -60 0 -137 -1 -170 -1 -102 -2 -373 0 -531 3 -103 3 -157 8 -167
16 -8 7 -17 9 -20 5 -3 -4 -26 -8 -51 -8 -25 0 -46 -3 -46 -7 0 -5 -4 -8 -10
-8 -5 0 -10 9 -10 20 0 23 -15 27 -23 6 -7 -16 -55 -27 -63 -14 -4 6 -9 6 -13
-1 -5 -7 -17 -8 -39 -2 -18 6 -32 6 -32 1 0 -11 -60 -4 -72 8 -5 5 -6 16 -3
25 7 17 55 19 68 2 4 -6 10 -6 15 2 7 12 52 18 133 18 39 0 45 -3 41 -17z
m-2957 -8 c-3 -5 -2 -10 4 -10 5 0 12 3 15 8 7 11 464 13 471 2 4 -6 -8 -10
-26 -10 -27 0 -30 -2 -19 -15 10 -13 9 -15 -9 -15 -12 0 -21 6 -21 15 0 18
-14 19 -42 4 -15 -8 -19 -8 -13 1 8 14 -84 4 -100 -11 -5 -5 -22 -9 -38 -9
-26 0 -28 2 -16 17 12 15 12 16 -4 10 -10 -4 -34 -7 -53 -7 -24 0 -34 -5 -34
-15 0 -23 -17 -18 -25 8 -6 19 -8 19 -12 5 -2 -10 -8 -18 -11 -19 -54 -7 -122
-7 -117 1 3 6 -3 10 -15 10 -12 0 -18 -5 -15 -10 4 -6 -3 -8 -17 -6 -13 3 -27
5 -31 5 -21 2 9 22 51 35 56 17 85 20 77 6z m1872 -268 c2 -51 13 -51 14 -1 0
31 3 38 8 25 8 -21 5 -103 -8 -218 -4 -38 -5 -68 -2 -68 6 0 6 -144 1 -165 -1
-5 -1 -14 0 -20 6 -22 5 -473 -1 -463 -4 6 -10 5 -15 -5 -6 -10 -14 -13 -22
-8 -11 7 -10 11 2 24 19 19 20 34 4 39 -9 3 -13 62 -15 214 -2 115 -4 227 -5
249 0 22 1 56 2 75 2 38 -6 157 -17 230 -10 68 -10 114 0 121 5 3 18 6 30 5
18 -1 22 -8 24 -34z m1227 17 c20 3 24 -4 30 -56 7 -62 7 -131 2 -308 -2 -60
-4 -181 -5 -268 -1 -140 -3 -158 -18 -164 -10 -4 -21 -11 -25 -17 -8 -12 -12
89 -8 244 1 52 1 100 1 105 0 6 -2 64 -5 130 -3 66 -8 142 -11 169 l-5 48 28
-6 c27 -6 27 -6 6 12 -18 15 -20 26 -16 76 2 32 8 53 12 46 4 -6 10 -11 14
-11z m-2456 -34 c2 -22 1 -64 -3 -93 -5 -42 -11 -55 -28 -62 -22 -9 -22 -9 2
-9 17 -1 22 -5 17 -17 -3 -9 -6 -57 -6 -107 l0 -91 -29 28 c-25 24 -29 36 -34
104 -4 54 -2 79 6 84 9 6 9 8 0 8 -13 0 -19 27 -28 132 l-7 68 54 -3 53 -2 3
-40z m591 -145 c1 -94 4 -193 7 -220 6 -46 4 -50 -15 -50 -19 0 -22 5 -21 43
0 23 -2 118 -5 211 -5 167 -2 185 27 186 3 0 7 -77 7 -170z m365 14 c3 -77 7
-300 11 -495 3 -195 8 -454 10 -576 3 -123 3 -223 1 -223 -2 0 -15 17 -28 38
l-23 37 -2 530 c-1 292 -4 578 -7 638 -2 75 0 107 8 107 6 0 5 4 -3 9 -9 6
-11 16 -6 31 7 21 27 51 32 46 1 -1 4 -65 7 -142z m3519 114 c5 -28 12 -660 8
-695 0 -7 -12 -13 -25 -13 -23 0 -25 4 -30 73 -5 56 -2 551 3 640 1 10 6 15
11 12 6 -3 10 -1 10 4 0 25 18 8 23 -21z m-5031 -35 c1 -32 3 -125 5 -208 1
-82 5 -221 8 -309 4 -87 3 -156 -2 -153 -4 3 -7 -68 -6 -158 3 -150 1 -163
-15 -161 -9 2 -21 -2 -25 -8 -5 -6 -6 -1 -2 11 3 12 1 32 -6 45 -17 32 -21 91
-6 100 9 6 9 10 1 16 -11 7 -17 256 -16 632 0 135 3 158 19 168 5 4 13 24 17
45 10 56 26 45 28 -20z m5213 -160 c-5 -120 -8 -222 -7 -228 0 -5 3 -104 7
-219 6 -198 5 -209 -11 -195 -41 34 -44 63 -44 429 0 342 0 350 21 371 12 12
23 28 24 38 5 22 4 21 11 21 3 0 3 -98 -1 -217z m1525 -13 c10 0 11 -56 14
-740 1 -299 1 -305 -19 -305 -20 0 -20 6 -19 473 0 259 -3 472 -8 472 -4 0 -8
16 -8 35 0 19 5 35 10 35 6 0 11 37 12 88 l2 87 3 -72 c2 -40 8 -73 13 -73z
m-6854 38 c0 -40 4 -175 8 -300 6 -188 5 -228 -6 -228 -9 -1 -7 -4 4 -10 15
-9 17 -36 18 -246 0 -158 -3 -233 -10 -229 -5 3 -10 1 -10 -4 0 -6 4 -11 10
-11 6 0 9 -86 10 -225 0 -124 -4 -225 -8 -225 -28 1 -30 26 -32 585 -4 742 -1
965 9 965 4 0 8 -33 7 -72z m1567 -65 c3 -13 1 -23 -4 -23 -6 0 -6 -7 0 -18 5
-10 10 -52 10 -95 0 -62 -3 -78 -17 -87 -16 -9 -16 -11 0 -23 15 -12 17 -35
16 -193 -1 -98 -3 -183 -6 -189 -3 -5 -5 -51 -3 -101 2 -84 1 -93 -18 -103
-11 -6 -22 -8 -24 -4 -3 7 -1 137 4 218 0 11 -2 56 -5 100 -3 44 -8 176 -10
294 -4 179 -2 216 10 228 9 9 12 23 8 35 -6 21 -6 21 13 2 11 -10 23 -29 26
-41z m-1384 5 c0 -13 3 -212 6 -443 3 -231 8 -517 10 -635 4 -201 3 -213 -12
-186 -20 38 -34 444 -14 432 14 -9 14 -1 1 24 -11 20 -16 802 -5 820 9 15 13
12 14 -12z m359 -136 c7 -33 17 -846 12 -1071 0 -10 -3 -11 -13 -2 -11 9 -15
113 -19 537 -3 289 -4 534 -1 545 6 22 15 18 21 -9z m2317 -205 c4 -72 18
-137 28 -137 8 0 9 -3 2 -8 -7 -4 -8 -40 -4 -102 4 -52 7 -232 7 -400 l1 -305
-20 45 c-27 60 -37 190 -34 469 2 124 3 284 4 355 1 71 4 126 8 123 4 -4 7
-22 8 -40z"/>
<path d="M10500 4353 c-30 -6 -56 -16 -57 -20 -3 -8 -120 -8 -157 0 -10 2 -46
-3 -78 -10 -32 -7 -63 -11 -68 -8 -4 3 -10 0 -12 -6 -2 -5 -22 -13 -46 -16
-23 -3 -42 -10 -42 -15 0 -5 -4 -6 -10 -3 -5 3 -10 1 -10 -5 0 -6 -8 -10 -17
-8 -16 4 -76 -14 -138 -41 -11 -5 -41 -16 -66 -25 -26 -9 -54 -25 -64 -36 -10
-11 -21 -17 -26 -14 -14 9 -122 -57 -153 -93 -21 -25 -33 -32 -50 -28 -17 5
-18 4 -6 -4 12 -9 10 -11 -11 -11 -14 0 -36 -11 -49 -25 -12 -13 -27 -22 -33
-18 -6 3 -7 1 -3 -5 4 -7 1 -12 -8 -12 -8 0 -13 -6 -10 -13 2 -7 -8 -20 -23
-29 -16 -9 -38 -26 -50 -38 -13 -11 -23 -18 -23 -14 0 4 -9 -4 -21 -17 -12
-13 -26 -23 -31 -21 -6 2 -8 -5 -4 -15 4 -9 4 -14 0 -10 -11 10 -34 -13 -28
-28 4 -8 -7 -20 -25 -30 -19 -9 -31 -23 -31 -35 0 -11 -9 -24 -20 -30 -11 -6
-20 -17 -20 -25 0 -8 -5 -15 -11 -15 -8 0 -7 -6 2 -17 13 -16 12 -17 -3 -5
-19 15 -38 8 -38 -14 0 -8 -18 -34 -41 -59 -22 -24 -39 -50 -36 -57 2 -7 -6
-28 -19 -47 -13 -19 -21 -37 -19 -41 2 -4 -7 -13 -21 -20 -13 -8 -27 -24 -30
-37 -4 -13 -10 -23 -15 -23 -5 0 -9 -10 -9 -23 0 -12 -7 -33 -16 -45 -10 -14
-14 -32 -10 -48 4 -14 2 -24 -4 -24 -6 0 -10 -8 -8 -18 1 -10 -7 -29 -20 -42
-13 -15 -20 -31 -16 -42 3 -10 1 -18 -4 -18 -14 0 -24 -31 -13 -44 5 -6 5 -20
1 -31 -4 -11 -6 -32 -3 -46 3 -15 -2 -37 -10 -50 -9 -13 -18 -42 -22 -64 -10
-60 -15 -75 -27 -75 -5 0 -7 7 -4 16 3 9 9 28 12 42 6 26 5 26 -11 -3 -10 -18
-14 -41 -11 -57 3 -15 1 -30 -4 -33 -5 -3 -6 -21 -3 -40 3 -21 1 -41 -7 -49
-6 -9 -8 -21 -4 -28 5 -7 7 -25 5 -40 -1 -15 3 -36 9 -48 9 -16 8 -21 -4 -26
-10 -4 -12 -13 -6 -34 4 -15 6 -50 3 -76 -2 -28 3 -75 12 -109 8 -33 11 -61 7
-63 -5 -1 -6 -19 -3 -40 4 -25 13 -40 29 -47 23 -10 30 -39 12 -50 -6 -4 -7
-11 -4 -17 4 -6 7 -24 6 -41 0 -16 6 -36 14 -44 8 -8 14 -20 14 -26 0 -7 -4
-6 -10 3 -9 13 -10 13 -10 0 0 -8 11 -26 25 -38 19 -19 23 -28 15 -42 -14 -26
-13 -34 10 -60 11 -13 20 -34 20 -47 0 -14 4 -21 10 -18 6 3 13 -2 16 -12 13
-41 28 -62 47 -67 17 -4 18 -8 8 -20 -11 -13 -9 -21 8 -45 12 -16 21 -34 21
-40 0 -17 47 -88 68 -103 23 -16 55 -75 47 -87 -2 -5 2 -12 11 -15 8 -3 12 -2
9 4 -3 6 -2 10 4 10 5 0 12 -14 16 -31 4 -17 13 -33 21 -36 7 -2 16 -13 19
-24 4 -10 13 -19 21 -19 8 0 12 4 9 10 -3 6 1 7 9 4 9 -3 14 -10 11 -14 -9
-15 28 -80 49 -86 24 -8 57 -39 49 -47 -3 -3 15 -20 40 -38 25 -17 51 -42 58
-56 8 -14 19 -21 27 -18 10 3 12 0 8 -10 -4 -11 1 -15 19 -15 14 0 25 -3 25
-7 0 -15 119 -105 130 -98 5 3 10 2 10 -4 0 -6 20 -19 44 -30 24 -11 46 -27
50 -36 3 -8 9 -14 13 -13 14 4 57 -14 77 -31 10 -9 19 -14 20 -12 0 2 20 -6
43 -17 22 -12 61 -24 85 -28 23 -4 56 -13 71 -21 15 -8 37 -11 49 -7 15 4 18
3 13 -6 -9 -15 14 -31 36 -25 9 3 22 -1 29 -10 7 -8 24 -15 39 -16 14 0 35 -4
46 -8 11 -5 25 -4 33 1 8 7 12 7 12 0 0 -5 11 -9 25 -9 13 0 22 3 19 8 -3 5
-1 9 4 9 6 0 12 -7 16 -15 3 -8 16 -15 28 -15 13 -1 52 -3 88 -6 92 -7 131 -5
149 7 14 9 14 10 -1 5 -12 -3 -16 1 -15 14 1 11 3 17 5 15 3 -2 13 0 23 6 13
7 19 6 19 -1 0 -7 6 -8 19 0 11 5 33 10 50 10 16 0 33 5 37 11 3 6 16 -4 31
-25 24 -34 28 -35 72 -30 103 12 274 49 296 64 6 4 43 17 83 30 39 13 72 27
72 32 0 4 7 8 15 8 9 0 18 6 20 13 3 6 19 13 37 14 17 1 36 7 42 13 5 5 18 10
27 10 9 0 22 7 30 16 7 8 21 13 31 11 23 -6 92 58 84 78 -5 14 11 15 31 2 6
-4 14 -3 18 3 3 5 14 10 24 10 9 0 30 13 46 30 16 16 35 30 43 30 7 0 22 5 33
11 20 10 20 11 3 30 -16 18 -16 19 -1 13 9 -3 24 -3 34 0 14 6 14 8 -3 21 -18
14 -17 14 11 9 22 -4 36 0 52 15 12 12 24 21 27 21 10 0 65 59 95 103 18 26
43 54 56 63 13 8 26 26 29 40 4 13 12 24 19 24 7 0 21 14 31 31 10 18 36 50
58 72 21 22 41 51 45 66 3 14 10 30 15 36 24 29 58 88 58 100 0 8 5 17 10 20
6 3 10 14 10 24 0 9 9 27 20 39 12 12 17 22 13 22 -4 0 -2 4 4 8 7 5 14 20 15
35 1 15 8 29 15 31 7 3 10 12 7 21 -4 10 0 15 10 15 13 0 16 8 14 34 -1 20 5
43 13 53 19 23 42 90 34 102 -3 5 -1 12 5 16 5 3 10 22 10 40 0 19 6 54 14 77
21 63 35 208 30 323 -2 55 -4 116 -4 135 1 106 -1 134 -8 144 -5 6 -10 34 -11
61 -2 28 -9 75 -17 105 -8 30 -15 72 -16 93 -1 20 -5 37 -9 37 -4 0 -10 14
-14 30 -4 17 -11 30 -16 30 -6 0 -8 4 -5 8 3 5 -7 42 -22 83 l-28 74 -43 -4
c-42 -3 -42 -2 -24 16 10 10 20 15 21 11 2 -4 10 -8 18 -8 12 0 12 5 -1 37 -9
21 -23 45 -31 55 -9 9 -13 22 -8 30 4 7 4 10 -1 6 -4 -4 -17 9 -27 30 -11 20
-29 47 -40 58 -11 12 -27 35 -36 52 -34 59 -82 125 -102 139 -11 8 -20 20 -20
27 0 7 -11 22 -24 33 -13 11 -25 25 -27 29 -8 18 -86 73 -94 66 -5 -4 -5 -2
-2 4 10 18 -19 37 -45 29 -21 -7 -21 -7 -4 10 17 18 17 19 -13 47 -16 15 -35
28 -40 28 -6 0 -11 4 -11 8 0 5 -12 15 -27 22 -16 8 -56 36 -90 62 -34 26 -65
43 -68 38 -3 -6 -3 -14 0 -20 3 -5 1 -10 -4 -10 -6 0 -11 6 -11 14 0 18 -93
87 -120 89 -11 1 -20 4 -20 7 0 3 -13 14 -30 23 -19 12 -30 14 -30 6 0 -6 -7
-9 -15 -5 -9 3 -24 -4 -37 -19 -12 -14 -26 -25 -30 -25 -14 0 25 49 45 55 9 4
15 10 12 15 -3 5 -12 7 -20 3 -9 -3 -27 3 -43 13 -27 18 -147 53 -337 99 -75
18 -168 21 -173 5 -2 -6 -12 -5 -25 3 -12 6 -33 13 -47 14 -102 8 -193 7 -240
-4z m250 -384 c30 -7 63 -12 73 -11 10 0 15 -4 11 -10 -4 -7 -2 -8 5 -4 6 4
17 3 24 -2 7 -5 30 -13 52 -16 22 -4 65 -11 95 -15 56 -9 74 -13 100 -24 53
-21 149 -50 170 -51 14 -1 26 -5 27 -11 2 -12 31 -23 64 -24 14 -1 36 -13 50
-27 13 -15 43 -35 67 -46 23 -10 42 -23 42 -29 0 -6 4 -8 8 -5 4 2 18 -9 31
-25 13 -16 29 -29 37 -29 8 0 14 -5 14 -11 0 -6 8 -8 18 -5 12 4 21 -1 27 -16
6 -12 17 -23 25 -26 13 -3 13 -2 1 6 -11 8 -12 14 -3 24 9 11 9 17 0 26 -17
17 3 14 26 -3 10 -8 23 -12 27 -9 5 3 9 1 9 -4 0 -6 -7 -13 -16 -16 -8 -3 -12
-10 -9 -16 3 -5 1 -10 -4 -10 -6 0 -11 -5 -11 -11 0 -11 20 -35 124 -149 17
-19 47 -59 66 -90 25 -40 40 -55 53 -52 17 3 17 2 -2 -17 -25 -25 -31 -26 -31
-7 0 53 -239 323 -343 387 -29 17 -54 35 -57 38 -3 4 -23 18 -45 31 -22 13
-46 30 -54 38 -8 8 -25 11 -40 8 -14 -3 -20 -3 -13 0 19 9 4 24 -23 24 -13 0
-26 4 -30 9 -3 5 -20 13 -37 17 -18 3 -39 10 -48 14 -92 48 -394 111 -484 101
-18 -1 -26 1 -21 8 6 10 -44 18 -70 11 -5 -2 -48 -5 -95 -7 -104 -4 -239 -23
-245 -33 -4 -7 -60 -20 -105 -25 -8 -1 -24 -6 -35 -12 -11 -6 -38 -14 -60 -18
-22 -4 -52 -15 -67 -26 -15 -10 -32 -19 -38 -19 -13 0 -124 -55 -159 -80 -14
-9 -60 -39 -101 -66 -41 -26 -104 -79 -140 -116 -36 -37 -71 -68 -78 -68 -7 0
-12 -9 -12 -20 0 -11 -7 -20 -14 -20 -20 0 -76 -61 -76 -81 0 -9 -14 -32 -31
-50 -18 -19 -40 -52 -50 -74 -11 -22 -28 -53 -39 -70 -11 -16 -24 -39 -29 -50
-5 -11 -23 -49 -40 -85 -18 -36 -36 -81 -40 -100 -5 -19 -16 -62 -26 -95 -40
-141 -43 -166 -48 -335 -2 -53 -7 -102 -12 -109 -5 -10 -4 -12 3 -7 9 5 12 -7
11 -41 -1 -26 6 -84 15 -128 9 -44 17 -89 18 -100 0 -11 4 -29 9 -40 5 -11 23
-58 40 -105 67 -180 79 -210 94 -227 17 -19 83 -118 123 -184 13 -22 28 -39
33 -39 5 0 9 -6 9 -13 0 -22 190 -203 322 -308 41 -32 136 -89 208 -124 125
-61 226 -91 365 -111 105 -14 381 -2 502 23 119 23 122 24 134 39 6 8 21 14
33 14 29 0 236 78 257 96 8 8 20 14 26 14 6 0 30 15 54 34 23 19 45 34 48 33
7 -2 78 41 111 68 46 38 260 254 260 264 0 5 12 16 26 26 l26 17 -18 -31 c-10
-18 -38 -54 -61 -81 -24 -26 -43 -53 -43 -58 0 -5 -9 -12 -21 -15 -13 -4 -18
-10 -13 -18 4 -7 3 -10 -4 -5 -6 4 -22 -10 -37 -31 -14 -21 -29 -38 -33 -39
-18 -1 -73 -41 -78 -56 -3 -9 -15 -20 -27 -24 -36 -10 -55 -33 -50 -57 3 -16
2 -18 -5 -8 -7 10 -14 10 -30 2 -11 -6 -30 -11 -41 -11 -12 0 -21 -4 -21 -10
0 -5 -7 -10 -15 -10 -8 0 -15 -4 -15 -9 0 -5 -7 -17 -16 -25 -19 -19 -49 -22
-38 -3 4 6 -1 5 -12 -4 -10 -9 -36 -22 -56 -28 -21 -7 -40 -17 -43 -21 -3 -5
-28 -12 -55 -16 -27 -4 -51 -13 -54 -20 -3 -8 -17 -14 -31 -14 -14 0 -71 -11
-128 -24 -168 -40 -216 -46 -297 -37 -41 4 -82 5 -91 0 -37 -19 -173 1 -329
48 -83 25 -349 147 -361 166 -4 6 -13 7 -21 5 -8 -4 -23 7 -36 27 -13 18 -45
48 -72 66 -28 19 -50 37 -50 41 0 10 -71 49 -79 43 -5 -2 -16 4 -26 15 -18 19
-17 20 5 20 18 0 20 3 10 14 -6 8 -18 12 -26 9 -8 -3 -14 1 -14 8 0 8 -34 56
-75 108 -41 51 -75 99 -75 106 0 6 -11 21 -25 33 -14 12 -25 29 -25 38 0 10
-11 32 -26 51 -14 18 -23 33 -20 33 3 0 -7 24 -23 53 -16 28 -31 64 -35 80 -3
15 -11 27 -16 27 -6 0 -10 7 -10 16 0 8 -7 22 -15 30 -9 10 -13 26 -10 44 3
16 1 31 -4 34 -5 3 -12 21 -15 41 -4 19 -14 41 -22 50 -14 13 -14 15 0 15 12
0 13 6 4 33 -12 36 -19 109 -18 177 0 25 1 96 1 158 1 61 5 114 10 117 4 3 6
11 3 18 -2 7 2 32 10 55 8 23 13 42 11 42 -2 0 3 23 10 52 10 35 11 57 4 70
-5 10 -6 18 -1 18 5 0 17 19 27 43 9 23 21 50 27 61 5 10 11 28 14 39 2 11 7
23 11 26 10 8 59 108 69 141 4 14 24 47 45 75 27 36 35 52 26 58 -8 6 -6 7 5
3 12 -3 24 6 38 30 12 18 25 34 30 34 5 0 11 9 15 19 3 11 25 39 48 62 23 23
41 46 39 51 -1 5 2 7 8 3 5 -3 13 1 16 10 4 9 19 22 34 30 29 15 75 58 98 91
7 11 10 13 7 7 -11 -23 7 -14 49 24 22 21 40 43 38 50 -3 15 14 17 23 3 10
-16 22 -12 28 10 3 12 14 20 26 20 12 0 45 13 74 28 28 16 72 35 97 42 25 7
61 20 80 28 19 9 38 15 43 14 4 -1 34 12 68 28 61 31 83 32 72 4 -5 -14 -3
-15 18 -3 13 7 29 12 36 11 6 -1 14 2 18 8 3 5 21 10 38 10 18 0 39 4 47 10 9
6 17 5 21 -1 4 -7 30 -8 74 -4 51 6 74 13 89 29 17 18 24 20 36 10 8 -6 40
-17 70 -25z m240 -136 c52 -16 118 -40 145 -53 28 -13 53 -22 58 -22 4 1 7 -3
7 -9 0 -5 4 -8 9 -5 5 4 11 2 13 -2 1 -5 44 -30 93 -56 50 -27 92 -51 95 -55
3 -4 28 -23 55 -42 85 -60 214 -189 288 -289 39 -52 75 -97 79 -98 5 -2 6 -7
3 -12 -3 -5 2 -16 11 -25 9 -9 14 -19 11 -22 -3 -3 0 -12 8 -19 7 -8 21 -35
30 -61 9 -27 22 -61 29 -78 35 -80 32 -72 70 -221 9 -33 16 -70 16 -83 0 -12
3 -20 8 -18 4 3 7 -29 8 -71 0 -43 1 -86 2 -97 4 -35 2 -128 -3 -124 -2 3 -6
36 -9 74 -12 169 -51 371 -92 473 -14 34 -22 67 -19 72 3 6 2 10 -3 10 -12 0
-44 69 -37 81 4 5 -1 12 -9 15 -9 3 -16 10 -16 15 0 4 -32 57 -72 116 -39 59
-71 113 -71 121 0 7 -13 20 -27 27 -15 8 -38 27 -52 42 -85 100 -263 231 -403
298 -154 74 -359 127 -566 145 -81 7 -71 8 76 6 157 -3 177 -5 265 -33z m-746
-152 c3 -5 -16 -16 -42 -26 -53 -19 -172 -73 -247 -111 -149 -77 -347 -265
-437 -414 -69 -114 -134 -299 -149 -425 -13 -108 -7 -372 10 -403 10 -18 35
-101 54 -178 2 -7 8 -18 13 -25 6 -8 11 -29 12 -47 2 -19 9 -41 18 -49 8 -9
25 -36 38 -62 33 -69 50 -95 64 -104 8 -5 22 -28 31 -50 18 -40 149 -187 167
-187 5 0 28 -18 52 -39 24 -22 58 -45 75 -52 39 -16 114 -71 113 -83 -1 -5 11
-13 25 -17 15 -3 40 -17 56 -29 20 -14 49 -23 86 -25 30 -2 80 -11 111 -20 43
-13 54 -20 50 -33 -5 -15 -4 -15 6 1 13 20 35 22 46 5 4 -6 3 -8 -2 -5 -6 3
-16 2 -24 -3 -11 -7 -12 -12 -3 -21 13 -13 67 -4 58 11 -3 5 -1 11 5 15 5 3
10 1 10 -4 0 -6 5 -11 11 -11 5 0 7 5 4 10 -3 6 -1 10 4 10 6 0 11 -7 11 -15
0 -8 3 -15 8 -16 4 0 14 -2 22 -5 94 -25 138 -29 205 -19 101 16 175 35 212
52 17 9 35 15 40 15 15 -1 34 21 29 35 -3 8 2 13 14 13 11 0 20 5 20 11 0 5 4
8 9 5 5 -4 11 0 14 6 3 10 11 10 36 1 28 -10 32 -9 42 9 6 11 25 26 42 34 46
21 98 55 227 149 98 71 150 132 156 180 3 29 -3 31 -28 8 -17 -15 -18 -15 -18
1 0 9 4 24 9 34 4 9 31 63 60 118 28 56 51 107 51 113 0 7 9 31 20 53 11 23
20 49 20 58 0 9 9 42 20 74 18 49 21 85 22 225 1 175 0 185 -67 401 -17 56
-30 128 -18 100 3 -8 9 -17 12 -20 3 -3 19 -32 35 -65 43 -92 74 -194 80 -268
2 -21 8 -43 13 -48 15 -15 5 -93 -34 -254 -2 -11 -4 -46 -4 -77 0 -32 -6 -63
-12 -70 -7 -7 -13 -29 -14 -48 -1 -19 -16 -66 -34 -105 -18 -38 -34 -76 -35
-84 -1 -7 -7 -18 -13 -24 -16 -16 -13 -48 5 -68 14 -15 14 -20 0 -54 -14 -32
-86 -125 -186 -239 -35 -40 -195 -158 -255 -189 -256 -130 -446 -170 -704
-148 -162 13 -355 64 -401 106 -9 8 -23 15 -32 15 -8 0 -55 20 -104 43 -260
127 -502 426 -585 722 -46 166 -49 187 -50 387 -2 258 22 371 117 560 67 135
92 175 168 267 102 125 218 218 359 289 110 56 147 70 262 102 17 4 31 8 32 9
1 1 4 -3 7 -8z m486 -232 c187 -30 379 -129 515 -265 188 -188 285 -418 285
-681 0 -209 -45 -363 -157 -536 -55 -84 -187 -219 -273 -277 -241 -164 -535
-209 -801 -124 -340 108 -580 359 -665 693 -46 180 -37 371 26 549 46 128 101
222 175 299 16 17 37 40 45 50 8 11 51 48 95 84 44 35 82 66 85 69 5 5 59 31
150 73 19 9 62 24 95 32 83 22 94 25 140 31 22 4 42 8 44 10 9 8 179 3 241 -7z
m-1278 -201 c-36 -51 -112 -178 -112 -186 0 -3 -12 -35 -26 -71 -125 -312
-141 -665 -42 -955 11 -33 24 -65 29 -71 5 -5 9 -16 9 -23 0 -8 15 -47 34 -86
19 -39 34 -75 34 -80 0 -5 4 -12 9 -15 5 -3 20 -24 33 -46 30 -49 120 -167
134 -177 8 -5 8 -10 0 -18 -7 -7 -18 -2 -36 17 -58 62 -144 194 -190 293 -27
58 -53 112 -58 121 -5 9 -12 34 -16 55 -10 47 -9 45 -17 64 -8 20 -35 141 -36
160 0 8 -4 49 -9 90 -10 87 -5 262 8 304 6 15 8 32 5 36 -2 4 0 23 5 42 6 19
19 77 30 128 24 112 88 252 173 377 34 50 63 90 65 88 2 -2 -9 -23 -26 -47z
m2527 -47 c17 -16 33 -42 37 -56 4 -15 13 -29 21 -32 10 -4 11 -9 3 -18 -7 -8
-7 -15 -1 -19 5 -3 12 0 15 6 3 7 3 3 1 -9 -3 -12 -1 -24 5 -28 5 -3 10 -16
10 -28 0 -13 7 -33 16 -45 8 -12 11 -22 5 -22 -5 0 -3 -13 5 -28 22 -46 56
-230 60 -327 8 -216 6 -282 -6 -322 -11 -35 -11 -45 0 -58 11 -13 11 -16 0
-13 -10 2 -14 -7 -14 -29 0 -18 -3 -33 -7 -33 -4 0 -9 -10 -12 -22 -4 -12 -9
-20 -11 -17 -5 5 -2 24 23 164 22 119 12 434 -17 535 -6 19 -18 62 -27 95 -9
33 -23 73 -31 89 -7 16 -14 34 -14 41 0 7 -22 55 -49 108 -27 54 -47 97 -45
97 2 0 17 -13 33 -29z m-35 -1209 c-16 -48 -32 -88 -36 -90 -5 -2 -8 -9 -8
-17 0 -12 -72 -156 -113 -225 -54 -91 -170 -221 -267 -299 -25 -20 -46 -39
-48 -43 -2 -5 -8 -8 -14 -8 -6 0 -23 -11 -38 -24 -54 -45 -246 -144 -337 -175
-115 -38 -279 -68 -387 -71 -12 0 -16 -5 -12 -15 4 -11 -1 -15 -19 -15 -15 0
-25 6 -25 14 0 21 -24 26 -88 20 -81 -7 -276 27 -407 71 -126 42 -275 115
-323 156 -18 16 -36 29 -40 29 -4 0 -19 10 -34 23 -14 12 -46 38 -70 57 -84
68 -131 117 -124 129 5 7 34 -14 86 -62 109 -101 217 -177 338 -237 126 -62
160 -75 282 -105 391 -98 780 -34 1115 184 39 25 72 48 75 51 3 3 39 35 81 72
179 158 308 349 400 593 23 61 25 65 29 88 1 9 3 9 7 -1 3 -8 -8 -53 -23 -100z"/>
<path d="M2930 4058 c-1 -41 4 -577 6 -643 1 -44 3 -312 4 -595 1 -337 5 -507
11 -491 5 13 11 80 14 148 3 69 10 143 15 164 6 22 8 44 4 50 -3 6 -6 34 -6
62 0 29 1 135 2 237 1 102 4 180 6 173 6 -13 34 -6 34 9 0 5 -5 6 -11 2 -8 -4
-9 0 -4 15 5 16 3 20 -9 15 -13 -5 -16 3 -17 47 -1 30 0 58 1 64 4 23 1 426
-4 490 -4 39 -13 108 -22 154 -8 46 -13 90 -10 97 3 8 1 14 -4 14 -6 0 -10 -6
-10 -12z"/>
<path d="M3268 4064 c-3 -5 -1 -56 4 -114 15 -199 25 -676 24 -1146 -1 -319 2
-470 9 -468 6 3 11 52 13 117 1 61 4 130 7 152 3 22 7 74 10 115 3 41 11 77
16 81 6 3 10 24 10 45 -1 22 -2 47 -2 57 0 9 -3 17 -7 17 -4 0 -9 12 -10 28
-1 21 0 23 8 12 8 -12 10 -11 10 8 0 13 -4 20 -10 17 -6 -4 -10 14 -11 47 0
29 -1 74 -2 100 -2 36 2 48 14 51 9 2 16 12 16 22 0 16 -1 16 -12 1 -16 -22
-26 -9 -15 20 5 13 6 24 2 24 -4 0 -8 29 -7 64 0 35 2 62 5 61 8 -5 2 214 -6
227 -4 6 -3 9 2 5 10 -6 11 99 1 109 -3 3 -3 12 -1 19 3 7 -2 72 -10 144 -9
72 -14 144 -12 159 2 15 1 21 -1 15 -6 -17 -13 -16 -28 4 -7 9 -14 12 -17 7z"/>
<path d="M4700 4059 c0 -5 -4 -8 -9 -5 -14 9 -22 -24 -11 -42 5 -10 10 -12 12
-7 1 6 5 -37 10 -95 19 -257 18 -276 -16 -225 -9 14 -23 25 -31 25 -13 0 -15
25 -16 148 -1 115 -3 137 -10 102 -13 -66 -18 -295 -17 -740 1 -433 1 -441 17
-585 6 -55 12 -125 14 -155 1 -30 0 232 -2 583 -2 422 0 637 7 637 14 0 28
-21 36 -53 4 -19 3 -26 -3 -22 -7 4 -8 -1 -4 -11 4 -11 -1 -22 -12 -30 -10 -8
-14 -14 -8 -14 6 0 20 -3 30 -6 13 -4 14 -3 5 3 -10 8 -10 12 3 23 13 11 15
-18 18 -291 1 -167 1 -450 0 -629 -1 -220 2 -301 7 -250 17 146 23 329 23 677
0 249 4 350 11 346 6 -4 5 0 -2 9 -10 12 -13 50 -10 145 4 206 -11 473 -28
473 -8 0 -14 -5 -14 -11z"/>
<path d="M3579 4058 c-1 -2 -9 -79 -18 -173 -10 -110 -14 -209 -10 -280 3 -60
7 -296 8 -524 1 -228 4 -417 6 -421 2 -3 6 -35 10 -72 17 -179 20 -116 18 438
-3 661 -7 1034 -10 1034 -2 0 -4 -1 -4 -2z"/>
<path d="M3048 4029 c0 -13 -3 -35 -4 -49 -11 -80 -18 -349 -14 -493 3 -93 3
-170 1 -172 -2 -2 -2 -118 -1 -257 1 -139 2 -274 1 -299 -1 -25 3 -77 9 -115
6 -38 13 -120 16 -183 2 -63 6 -116 8 -119 6 -5 -5 1702 -10 1707 -2 2 -5 -7
-6 -20z"/>
<path d="M6722 4033 c-5 -10 -15 -61 -21 -113 -14 -119 -14 -1143 1 -1212 5
-26 10 -94 11 -152 1 -65 6 -102 12 -99 7 2 9 225 7 671 -2 367 -3 713 -4 768
0 56 5 111 11 122 14 25 14 32 1 32 -5 0 -13 -8 -18 -17z"/>
<path d="M6956 3970 c2 -45 1 -123 -3 -173 -5 -75 -8 -87 -19 -73 -7 10 -15
13 -18 7 -4 -5 3 -16 14 -24 19 -13 20 -27 25 -333 3 -175 6 -465 7 -644 1
-179 5 -336 9 -350 5 -18 7 -9 9 35 5 210 13 331 20 340 9 11 9 33 -2 50 -3 6
-2 19 2 30 4 11 4 30 -1 41 -11 30 -8 475 3 498 7 12 7 16 -1 12 -7 -5 -10 62
-10 211 -1 209 -15 413 -31 442 -4 7 -5 -24 -4 -69z"/>
<path d="M7113 4011 c1 -22 4 -38 7 -36 3 2 5 -272 4 -608 0 -675 7 -1056 18
-992 4 22 7 47 6 55 -5 52 3 330 10 326 4 -2 14 -1 22 5 13 7 12 9 -2 9 -15 0
-16 39 -16 453 -1 470 -6 684 -16 694 -3 4 -6 24 -6 45 0 24 -4 37 -10 33 -5
-3 -10 -2 -10 4 0 5 5 11 11 13 5 2 7 11 4 21 -12 30 -24 18 -22 -22z"/>
<path d="M2339 4034 c0 -5 -6 -65 -13 -134 -8 -79 -11 -231 -9 -415 2 -255 1
-291 -13 -302 -15 -11 -11 -38 5 -29 4 3 8 -95 8 -217 0 -122 5 -271 11 -332
6 -60 14 -148 18 -195 3 -47 8 -87 11 -90 3 -3 2 326 -2 730 -4 404 -7 742 -7
750 3 61 1 234 -3 238 -3 3 -5 1 -6 -4z"/>
<path d="M4180 3780 c1 -146 0 -269 -1 -275 -1 -5 -1 -13 0 -17 5 -44 9 -874
3 -933 -4 -46 -3 -99 2 -124 7 -32 7 -46 -1 -48 -6 -2 -9 -13 -6 -23 11 -41
22 -6 23 73 3 167 4 187 10 187 6 0 8 56 7 240 0 246 4 348 19 404 4 16 2 31
-3 35 -12 7 -27 65 -16 58 10 -6 11 114 0 130 -4 6 -3 23 3 38 6 15 7 31 4 36
-3 5 -7 69 -10 142 -4 147 -19 326 -29 335 -3 3 -5 -113 -5 -258z"/>
<path d="M5141 3935 c-7 -60 -14 -149 -16 -196 -1 -48 -5 -91 -9 -98 -4 -6 -4
-11 1 -11 4 0 9 -129 10 -288 2 -477 6 -662 14 -662 4 0 8 -46 8 -102 1 -57 5
-118 9 -136 4 -18 6 331 4 775 -2 444 -4 813 -6 818 -1 6 -8 -39 -15 -100z"/>
<path d="M6890 4029 c0 -5 -4 -8 -8 -5 -5 3 -9 -9 -9 -27 -1 -18 -4 -79 -7
-137 -7 -132 -7 -681 0 -692 3 -4 1 -8 -4 -8 -6 0 -8 -35 -6 -82 2 -46 6 -141
8 -213 6 -195 27 -467 37 -490 6 -13 8 13 4 75 -4 80 -8 1506 -4 1535 1 6 1
13 0 18 0 4 4 7 10 7 5 0 8 4 5 9 -4 5 0 12 6 14 7 3 3 6 -9 6 -13 1 -23 -4
-23 -10z"/>
<path d="M7278 4024 c5 -11 10 -216 11 -504 1 -267 3 -512 5 -545 2 -33 4
-187 4 -343 1 -156 6 -281 11 -278 7 5 12 74 15 233 1 36 5 53 14 53 10 0 10
5 2 20 -12 23 -9 187 4 209 7 10 5 12 -4 6 -9 -6 -10 0 -4 26 4 19 7 41 6 49
-8 115 -10 470 -2 465 6 -3 10 1 10 9 0 9 -4 16 -8 16 -5 0 -10 68 -11 152 -1
83 -3 154 -5 157 -2 3 -7 53 -10 111 -8 125 -17 172 -35 178 -10 3 -11 0 -3
-14z"/>
<path d="M4541 3330 c-1 -382 -4 -747 -7 -810 -4 -70 -2 -125 4 -140 9 -20 11
-6 11 68 1 51 4 91 9 89 4 -3 8 14 8 36 1 23 5 57 9 76 6 26 5 32 -5 26 -9 -6
-11 -4 -5 5 4 7 9 191 11 409 2 218 4 401 4 406 2 60 -15 352 -25 430 -11 89
-13 21 -14 -595z"/>
<path d="M4975 3968 c-4 -29 -9 -61 -11 -71 -1 -9 -4 -89 -5 -177 -1 -88 -5
-157 -10 -155 -4 3 -10 1 -14 -5 -3 -5 -2 -10 3 -10 5 0 10 -6 12 -12 1 -7 4
-182 6 -388 2 -206 8 -422 14 -480 21 -197 23 -257 11 -264 -18 -11 -13 -36 5
-29 15 5 15 24 9 170 -5 126 -4 163 5 163 10 0 10 3 0 15 -9 11 -12 164 -12
655 0 352 -1 640 -3 640 -2 0 -6 -24 -10 -52z"/>
<path d="M4366 3505 c1 -416 -1 -505 -12 -509 -20 -8 -17 -36 3 -36 15 0 15
-24 10 -281 -4 -155 -3 -279 0 -275 4 4 8 28 9 54 0 26 5 88 9 137 18 193 19
1192 2 1295 -1 8 -5 20 -8 25 -3 6 -7 28 -8 50 -1 21 -3 40 -4 41 -1 1 -2
-224 -1 -501z"/>
<path d="M4281 3985 c-1 -11 -6 -63 -11 -115 -16 -150 -16 -1074 0 -1190 5
-36 11 -95 14 -131 l5 -66 -37 -10 -37 -10 37 -2 c26 -1 37 -6 40 -18 4 -22
-1 1504 -6 1537 -2 18 -3 19 -5 5z"/>
<path d="M4451 3928 c-10 -65 -17 -266 -22 -616 -1 -62 -5 -109 -10 -106 -5 3
-9 1 -9 -5 0 -5 5 -11 10 -13 6 -2 12 -95 16 -243 3 -132 10 -267 15 -300 5
-33 9 -89 10 -125 0 -36 4 -83 8 -105 4 -22 5 73 3 210 -3 138 -6 503 -6 813
0 309 -1 562 -2 562 -1 0 -6 -33 -13 -72z"/>
<path d="M7047 3960 c-4 -24 -13 -48 -20 -52 -8 -5 -8 -8 -1 -8 8 0 10 -29 7
-92 -7 -179 -8 -766 0 -761 4 2 7 -1 7 -6 0 -6 -3 -11 -7 -11 -7 0 -7 -58 0
-155 0 -11 -3 -35 -7 -54 -5 -21 -5 -31 1 -28 9 6 17 -73 29 -300 2 -44 8 -98
14 -120 8 -30 9 -18 5 57 -3 52 -6 388 -7 745 -1 358 -5 691 -8 740 -5 83 -6
87 -13 45z"/>
<path d="M4888 3854 c2 -80 0 -134 -6 -131 -5 4 -9 0 -9 -8 0 -8 5 -15 10 -15
5 0 8 -261 6 -664 -2 -366 0 -668 5 -673 4 -4 6 26 5 67 -2 41 -1 80 2 85 3 6
5 40 4 78 0 37 3 67 7 67 4 0 8 10 7 23 -4 221 4 734 13 744 7 9 7 13 -1 13
-6 0 -11 14 -11 30 0 17 4 30 9 30 6 0 6 12 0 32 -6 21 -5 34 0 36 7 2 7 13 0
28 -5 14 -9 71 -9 127 1 56 -1 113 -3 127 -2 14 -8 51 -12 83 -13 98 -20 63
-17 -79z"/>
<path d="M7641 3913 c0 -17 -7 -34 -13 -36 -10 -4 -10 -6 0 -6 9 -1 12 -164
12 -778 0 -446 4 -772 9 -763 9 14 22 326 22 493 0 48 4 77 11 77 7 0 7 4 1
13 -14 18 -16 103 -3 128 9 16 9 23 1 29 -10 6 -16 147 -11 235 3 33 2 42 -5
225 -7 202 -21 430 -24 383z"/>
</g>
</svg>
